<svg width="272" height="308" viewBox="0 0 272 308" fill="none" xmlns="http://www.w3.org/2000/svg">
<mask id="mask0_0_4" style="mask-type:alpha" maskUnits="userSpaceOnUse" x="0" y="0" width="272" height="308">
<path d="M250 308H22C9.84974 308 0 298.15 0 286V22C0 9.84974 9.84974 0 22 0H170L272 102V286C272 298.15 262.15 308 250 308Z" fill="url(#paint0_linear_0_4)"/>
</mask>
<g mask="url(#mask0_0_4)">
<path d="M250 308H22C9.84974 308 0 298.15 0 286V22C0 9.84974 9.84974 0 22 0H170L272 102V286C272 298.15 262.15 308 250 308Z" fill="url(#paint1_linear_0_4)"/>
<path d="M49.218 226C48.2173 226 47.3747 225.658 46.69 224.973C46.0053 224.288 45.663 223.446 45.663 222.445V174.492C45.663 173.491 46.0053 172.649 46.69 171.964C47.3747 171.227 48.2173 170.858 49.218 170.858H67.862C73.4973 170.858 77.8423 172.148 80.897 174.729C84.0043 177.31 85.558 180.786 85.558 185.157C85.558 188.212 84.8207 190.766 83.346 192.82C81.924 194.821 80.0807 196.322 77.816 197.323C80.976 198.324 83.5567 199.93 85.558 202.142C87.612 204.354 88.639 207.145 88.639 210.516C88.639 215.361 87.0063 219.153 83.741 221.892C80.4757 224.631 75.3407 226 68.336 226H49.218ZM65.966 194.716C70.6533 194.716 73.945 193.926 75.841 192.346C77.737 190.766 78.685 188.554 78.685 185.71C78.685 183.235 77.658 181.26 75.604 179.785C73.6027 178.31 70.8377 177.573 67.309 177.573H52.852V194.716H65.966ZM67.625 219.285C72.7337 219.285 76.3413 218.495 78.448 216.915C80.6073 215.335 81.687 213.097 81.687 210.2C81.687 204.196 77.026 201.194 67.704 201.194H52.852V219.285H67.625ZM109.523 226.395C108.523 226.395 107.68 226.053 106.995 225.368C106.311 224.683 105.968 223.841 105.968 222.84V175.677C105.968 174.255 106.469 173.044 107.469 172.043C108.47 170.99 109.681 170.463 111.103 170.463H113.71C114.764 170.463 115.712 170.779 116.554 171.411C117.45 172.043 118.108 172.833 118.529 173.781L136.462 218.495L154.395 173.781C154.817 172.833 155.449 172.043 156.291 171.411C157.187 170.779 158.161 170.463 159.214 170.463H161.821C163.243 170.463 164.455 170.99 165.455 172.043C166.456 173.044 166.956 174.255 166.956 175.677V222.84C166.956 223.841 166.614 224.683 165.929 225.368C165.245 226.053 164.402 226.395 163.401 226.395C162.401 226.395 161.532 226.053 160.794 225.368C160.11 224.683 159.767 223.841 159.767 222.84V177.968L141.518 223.077C141.097 224.078 140.412 224.894 139.464 225.526C138.569 226.105 137.568 226.395 136.462 226.395C135.356 226.395 134.329 226.105 133.381 225.526C132.486 224.894 131.828 224.078 131.406 223.077L113.157 177.968V222.84C113.157 223.841 112.789 224.683 112.051 225.368C111.367 226.053 110.524 226.395 109.523 226.395ZM191.353 226.395C190.353 226.395 189.51 226.053 188.825 225.368C188.141 224.683 187.798 223.841 187.798 222.84V174.492C187.798 173.491 188.141 172.649 188.825 171.964C189.51 171.227 190.353 170.858 191.353 170.858H209.365C214.369 170.858 218.45 171.701 221.61 173.386C224.77 175.071 227.035 177.231 228.404 179.864C229.774 182.497 230.458 185.341 230.458 188.396C230.458 191.451 229.774 194.295 228.404 196.928C227.035 199.561 224.77 201.721 221.61 203.406C218.45 205.091 214.369 205.934 209.365 205.934H194.987V222.84C194.987 223.841 194.619 224.683 193.881 225.368C193.197 226.053 192.354 226.395 191.353 226.395ZM208.654 199.14C214.026 199.14 217.792 198.113 219.951 196.059C222.163 194.005 223.269 191.451 223.269 188.396C223.269 185.341 222.163 182.787 219.951 180.733C217.792 178.679 214.026 177.652 208.654 177.652H194.987V199.14H208.654Z" fill="white"/>
<path d="M46.69 224.973L48.1042 223.559L48.1042 223.559L46.69 224.973ZM46.69 171.964L48.1042 173.378L48.1304 173.352L48.1556 173.325L46.69 171.964ZM80.897 174.729L79.6063 176.257L79.6127 176.262L79.6192 176.268L80.897 174.729ZM83.346 192.82L81.7213 191.654L81.7156 191.662L83.346 192.82ZM77.816 197.323L77.0077 195.494L72.1677 197.632L77.2122 199.23L77.816 197.323ZM85.558 202.142L84.0749 203.484L84.0836 203.493L84.0924 203.503L85.558 202.142ZM83.741 221.892L85.0262 223.424L85.0262 223.424L83.741 221.892ZM75.841 192.346L74.5606 190.81L75.841 192.346ZM75.604 179.785L74.4176 181.395L74.4276 181.402L74.4376 181.41L75.604 179.785ZM52.852 177.573V175.573H50.852V177.573H52.852ZM52.852 194.716H50.852V196.716H52.852V194.716ZM78.448 216.915L77.267 215.301L77.2575 215.308L77.248 215.315L78.448 216.915ZM52.852 201.194V199.194H50.852V201.194H52.852ZM52.852 219.285H50.852V221.285H52.852V219.285ZM49.218 224C48.7279 224 48.4 223.855 48.1042 223.559L45.2758 226.387C46.3493 227.461 47.7067 228 49.218 228V224ZM48.1042 223.559C47.8084 223.263 47.663 222.935 47.663 222.445H43.663C43.663 223.956 44.2022 225.314 45.2758 226.387L48.1042 223.559ZM47.663 222.445V174.492H43.663V222.445H47.663ZM47.663 174.492C47.663 174.002 47.8084 173.674 48.1042 173.378L45.2758 170.55C44.2023 171.623 43.663 172.981 43.663 174.492H47.663ZM48.1556 173.325C48.4642 172.993 48.777 172.858 49.218 172.858V168.858C47.6577 168.858 46.2851 169.461 45.2244 170.603L48.1556 173.325ZM49.218 172.858H67.862V168.858H49.218V172.858ZM67.862 172.858C73.2159 172.858 77.0357 174.085 79.6063 176.257L82.1877 173.201C78.649 170.212 73.7788 168.858 67.862 168.858V172.858ZM79.6192 176.268C82.2279 178.434 83.558 181.325 83.558 185.157H87.558C87.558 180.247 85.7808 176.185 82.1748 173.19L79.6192 176.268ZM83.558 185.157C83.558 187.882 82.9048 190.005 81.7214 191.654L84.9706 193.986C86.7366 191.527 87.558 188.541 87.558 185.157H83.558ZM81.7156 191.662C80.5041 193.367 78.9459 194.637 77.0077 195.494L78.6243 199.152C81.2155 198.007 83.3439 196.276 84.9764 193.978L81.7156 191.662ZM77.2122 199.23C80.0728 200.136 82.3372 201.563 84.0749 203.484L87.0411 200.8C84.7762 198.297 81.8792 196.512 78.4198 195.416L77.2122 199.23ZM84.0924 203.503C85.7619 205.301 86.639 207.586 86.639 210.516H90.639C90.639 206.704 89.4621 203.407 87.0236 200.781L84.0924 203.503ZM86.639 210.516C86.639 214.861 85.2028 218.056 82.4558 220.36L85.0262 223.424C88.8098 220.251 90.639 215.862 90.639 210.516H86.639ZM82.4558 220.36C79.7191 222.655 75.1514 224 68.336 224V228C75.5299 228 81.2322 226.606 85.0262 223.424L82.4558 220.36ZM68.336 224H49.218V228H68.336V224ZM65.966 196.716C70.7558 196.716 74.6604 195.933 77.1214 193.882L74.5606 190.81C73.2296 191.919 70.5509 192.716 65.966 192.716V196.716ZM77.1214 193.882C79.5457 191.862 80.685 189.047 80.685 185.71H76.685C76.685 188.061 75.9284 189.67 74.5606 190.81L77.1214 193.882ZM80.685 185.71C80.685 182.574 79.3344 180.001 76.7704 178.16L74.4376 181.41C75.9817 182.518 76.685 183.895 76.685 185.71H80.685ZM76.7904 178.175C74.3279 176.36 71.0911 175.573 67.309 175.573V179.573C70.5842 179.573 72.8774 180.26 74.4176 181.395L76.7904 178.175ZM67.309 175.573H52.852V179.573H67.309V175.573ZM50.852 177.573V194.716H54.852V177.573H50.852ZM52.852 196.716H65.966V192.716H52.852V196.716ZM67.625 221.285C72.821 221.285 76.9948 220.505 79.648 218.515L77.248 215.315C75.6878 216.485 72.6463 217.285 67.625 217.285V221.285ZM79.629 218.529C82.3507 216.538 83.687 213.673 83.687 210.2H79.687C79.687 212.52 78.864 214.132 77.267 215.301L79.629 218.529ZM83.687 210.2C83.687 206.585 82.2307 203.668 79.2742 201.764C76.4687 199.957 72.5156 199.194 67.704 199.194V203.194C72.2144 203.194 75.2528 203.932 77.1083 205.127C78.8128 206.225 79.687 207.811 79.687 210.2H83.687ZM67.704 199.194H52.852V203.194H67.704V199.194ZM50.852 201.194V219.285H54.852V201.194H50.852ZM52.852 221.285H67.625V217.285H52.852V221.285ZM106.995 225.368L108.41 223.954L108.41 223.954L106.995 225.368ZM107.469 172.043L108.884 173.457L108.902 173.439L108.919 173.42L107.469 172.043ZM116.554 171.411L115.354 173.011L115.377 173.028L115.401 173.045L116.554 171.411ZM118.529 173.781L120.386 173.037L120.372 173.002L120.357 172.969L118.529 173.781ZM136.462 218.495L134.606 219.239L136.462 223.868L138.319 219.239L136.462 218.495ZM154.395 173.781L152.568 172.969L152.553 173.002L152.539 173.037L154.395 173.781ZM156.291 171.411L155.138 169.777L155.114 169.794L155.091 169.811L156.291 171.411ZM165.455 172.043L164.005 173.42L164.023 173.439L164.041 173.457L165.455 172.043ZM165.929 225.368L167.344 226.782L167.344 226.782L165.929 225.368ZM160.794 225.368L159.38 226.782L159.406 226.808L159.433 226.834L160.794 225.368ZM159.767 177.968H161.767L157.913 177.218L159.767 177.968ZM141.518 223.077L143.362 223.853L143.367 223.84L143.372 223.827L141.518 223.077ZM139.464 225.526L140.551 227.205L140.562 227.198L140.574 227.19L139.464 225.526ZM133.381 225.526L132.228 227.16L132.282 227.198L132.338 227.233L133.381 225.526ZM131.406 223.077L129.552 223.827L129.558 223.84L129.563 223.853L131.406 223.077ZM113.157 177.968L115.011 177.218L111.157 177.968H113.157ZM112.051 225.368L110.69 223.902L110.663 223.928L110.637 223.954L112.051 225.368ZM109.523 224.395C109.033 224.395 108.705 224.25 108.41 223.954L105.581 226.782C106.655 227.856 108.012 228.395 109.523 228.395V224.395ZM108.41 223.954C108.114 223.658 107.968 223.33 107.968 222.84H103.968C103.968 224.351 104.508 225.709 105.581 226.782L108.41 223.954ZM107.968 222.84V175.677H103.968V222.84H107.968ZM107.968 175.677C107.968 174.783 108.26 174.081 108.884 173.457L106.055 170.629C104.677 172.007 103.968 173.727 103.968 175.677H107.968ZM108.919 173.42C109.552 172.755 110.243 172.463 111.103 172.463V168.463C109.12 168.463 107.388 169.224 106.019 170.665L108.919 173.42ZM111.103 172.463H113.71V168.463H111.103V172.463ZM113.71 172.463C114.331 172.463 114.858 172.639 115.354 173.011L117.754 169.811C116.566 168.919 115.196 168.463 113.71 168.463V172.463ZM115.401 173.045C116.019 173.481 116.435 173.994 116.702 174.593L120.357 172.969C119.781 171.672 118.881 170.605 117.708 169.777L115.401 173.045ZM116.673 174.525L134.606 219.239L138.319 217.751L120.386 173.037L116.673 174.525ZM138.319 219.239L156.252 174.525L152.539 173.037L134.606 217.751L138.319 219.239ZM156.223 174.593C156.504 173.962 156.917 173.442 157.491 173.011L155.091 169.811C153.98 170.644 153.13 171.704 152.568 172.969L156.223 174.593ZM157.445 173.045C158.017 172.641 158.592 172.463 159.214 172.463V168.463C157.731 168.463 156.356 168.917 155.138 169.777L157.445 173.045ZM159.214 172.463H161.821V168.463H159.214V172.463ZM161.821 172.463C162.682 172.463 163.373 172.755 164.005 173.42L166.905 170.665C165.536 169.224 163.805 168.463 161.821 168.463V172.463ZM164.041 173.457C164.665 174.081 164.956 174.783 164.956 175.677H168.956C168.956 173.727 168.247 172.007 166.87 170.629L164.041 173.457ZM164.956 175.677V222.84H168.956V175.677H164.956ZM164.956 222.84C164.956 223.33 164.811 223.658 164.515 223.954L167.344 226.782C168.417 225.709 168.956 224.351 168.956 222.84H164.956ZM164.515 223.954C164.219 224.25 163.891 224.395 163.401 224.395V228.395C164.913 228.395 166.27 227.856 167.344 226.782L164.515 223.954ZM163.401 224.395C162.909 224.395 162.525 224.246 162.155 223.902L159.433 226.834C160.538 227.86 161.893 228.395 163.401 228.395V224.395ZM162.209 223.954C161.913 223.658 161.767 223.33 161.767 222.84H157.767C157.767 224.351 158.307 225.709 159.38 226.782L162.209 223.954ZM161.767 222.84V177.968H157.767V222.84H161.767ZM157.913 177.218L139.664 222.327L143.372 223.827L161.621 178.718L157.913 177.218ZM139.675 222.301C139.414 222.922 138.994 223.436 138.355 223.862L140.574 227.19C141.831 226.352 142.78 225.234 143.362 223.853L139.675 222.301ZM138.378 223.847C137.819 224.209 137.198 224.395 136.462 224.395V228.395C137.939 228.395 139.319 228.002 140.551 227.205L138.378 223.847ZM136.462 224.395C135.726 224.395 135.06 224.208 134.424 223.819L132.338 227.233C133.599 228.003 134.987 228.395 136.462 228.395V224.395ZM134.535 223.892C133.942 223.474 133.524 222.953 133.25 222.301L129.563 223.853C130.131 225.202 131.03 226.314 132.228 227.16L134.535 223.892ZM133.26 222.327L115.011 177.218L111.303 178.718L129.552 223.827L133.26 222.327ZM111.157 177.968V222.84H115.157V177.968H111.157ZM111.157 222.84C111.157 223.281 111.023 223.594 110.69 223.902L113.412 226.834C114.555 225.773 115.157 224.4 115.157 222.84H111.157ZM110.637 223.954C110.341 224.25 110.013 224.395 109.523 224.395V228.395C111.035 228.395 112.392 227.856 113.466 226.782L110.637 223.954ZM188.825 225.368L190.239 223.954L190.239 223.954L188.825 225.368ZM188.825 171.964L190.239 173.378L190.266 173.352L190.291 173.325L188.825 171.964ZM221.61 173.386L222.551 171.621L221.61 173.386ZM228.404 179.864L226.63 180.787L226.63 180.787L228.404 179.864ZM228.404 196.928L226.63 196.005L226.63 196.005L228.404 196.928ZM221.61 203.406L222.551 205.171L221.61 203.406ZM194.987 205.934V203.934H192.987V205.934H194.987ZM193.881 225.368L192.52 223.902L192.493 223.928L192.467 223.954L193.881 225.368ZM219.951 196.059L218.59 194.593L218.581 194.602L218.573 194.61L219.951 196.059ZM219.951 180.733L218.573 182.182L218.581 182.19L218.59 182.199L219.951 180.733ZM194.987 177.652V175.652H192.987V177.652H194.987ZM194.987 199.14H192.987V201.14H194.987V199.14ZM191.353 224.395C190.863 224.395 190.535 224.25 190.239 223.954L187.411 226.782C188.485 227.856 189.842 228.395 191.353 228.395V224.395ZM190.239 223.954C189.944 223.658 189.798 223.33 189.798 222.84H185.798C185.798 224.351 186.337 225.709 187.411 226.782L190.239 223.954ZM189.798 222.84V174.492H185.798V222.84H189.798ZM189.798 174.492C189.798 174.002 189.944 173.674 190.239 173.378L187.411 170.55C186.337 171.623 185.798 172.981 185.798 174.492H189.798ZM190.291 173.325C190.599 172.993 190.912 172.858 191.353 172.858V168.858C189.793 168.858 188.42 169.461 187.36 170.603L190.291 173.325ZM191.353 172.858H209.365V168.858H191.353V172.858ZM209.365 172.858C214.163 172.858 217.891 173.669 220.669 175.151L222.551 171.621C219.01 169.732 214.574 168.858 209.365 168.858V172.858ZM220.669 175.151C223.547 176.686 225.482 178.58 226.63 180.787L230.179 178.941C228.587 175.881 225.993 173.457 222.551 171.621L220.669 175.151ZM226.63 180.787C227.846 183.127 228.458 185.653 228.458 188.396H232.458C232.458 185.03 231.701 181.868 230.179 178.941L226.63 180.787ZM228.458 188.396C228.458 191.139 227.846 193.665 226.63 196.005L230.179 197.851C231.701 194.924 232.458 191.762 232.458 188.396H228.458ZM226.63 196.005C225.482 198.212 223.547 200.106 220.669 201.641L222.551 205.171C225.993 203.335 228.587 200.911 230.179 197.851L226.63 196.005ZM220.669 201.641C217.891 203.123 214.163 203.934 209.365 203.934V207.934C214.574 207.934 219.01 207.06 222.551 205.171L220.669 201.641ZM209.365 203.934H194.987V207.934H209.365V203.934ZM192.987 205.934V222.84H196.987V205.934H192.987ZM192.987 222.84C192.987 223.281 192.853 223.594 192.52 223.902L195.242 226.834C196.384 225.773 196.987 224.4 196.987 222.84H192.987ZM192.467 223.954C192.171 224.25 191.843 224.395 191.353 224.395V228.395C192.864 228.395 194.222 227.856 195.295 226.782L192.467 223.954ZM208.654 201.14C214.166 201.14 218.596 200.109 221.33 197.508L218.573 194.61C216.988 196.117 213.886 197.14 208.654 197.14V201.14ZM221.312 197.525C223.937 195.087 225.269 191.999 225.269 188.396H221.269C221.269 190.902 220.389 192.923 218.59 194.593L221.312 197.525ZM225.269 188.396C225.269 184.793 223.937 181.705 221.312 179.267L218.59 182.199C220.389 183.869 221.269 185.89 221.269 188.396H225.269ZM221.33 179.284C218.596 176.683 214.166 175.652 208.654 175.652V179.652C213.886 179.652 216.988 180.675 218.573 182.182L221.33 179.284ZM208.654 175.652H194.987V179.652H208.654V175.652ZM192.987 177.652V199.14H196.987V177.652H192.987ZM194.987 201.14H208.654V197.14H194.987V201.14Z" fill="white"/>
<mask id="mask1_0_4" style="mask-type:alpha" maskUnits="userSpaceOnUse" x="0" y="0" width="272" height="308">
<path d="M250 308H22C9.84974 308 0 298.15 0 286V22C0 9.84974 9.84974 0 22 0H170L272 102V286C272 298.15 262.15 308 250 308Z" fill="url(#paint2_linear_0_4)"/>
</mask>
<g mask="url(#mask1_0_4)">
<ellipse opacity="0.08" cx="-27.5" cy="-6.5" rx="223.5" ry="214.5" fill="url(#paint3_linear_0_4)"/>
<ellipse opacity="0.08" cx="-27.5" cy="-6.5" rx="140.5" ry="134.5" fill="url(#paint4_linear_0_4)"/>
</g>
<g filter="url(#filter0_d_0_4)">
<path d="M272 102H192C179.85 102 170 92.1503 170 80V0L272 102Z" fill="url(#paint5_linear_0_4)"/>
</g>
<path opacity="0.1" fill-rule="evenodd" clip-rule="evenodd" d="M58 137.549V248.451C58 260.904 68.0956 271 80.5491 271H191.451C203.904 271 214 260.904 214 248.451V137.549C214 125.096 203.904 115 191.451 115H80.5491C68.0956 115 58 125.096 58 137.549ZM72.1818 137.549C72.1818 132.928 75.928 129.182 80.5491 129.182H93.4545V150.455H72.1818V137.549ZM72.1818 164.636H93.4545V185.909H72.1818V164.636ZM199.818 150.455V137.549C199.818 132.928 196.072 129.182 191.451 129.182H178.545V150.455H199.818ZM178.545 164.636H199.818V185.909H178.545V164.636ZM164.364 129.182H107.636V185.909H164.364V129.182ZM199.818 200.091V221.364H178.545V200.091H199.818ZM199.818 235.545H178.545V256.818H191.451C196.072 256.818 199.818 253.072 199.818 248.451V235.545ZM164.364 200.091V256.818H107.636V200.091H164.364ZM72.1818 235.545V248.451C72.1818 253.072 75.928 256.818 80.5491 256.818H93.4545V235.545H72.1818ZM93.4545 221.364H72.1818V200.091H93.4545V221.364Z" fill="white"/>
</g>
<defs>
<filter id="filter0_d_0_4" x="147" y="-24" width="152" height="152" filterUnits="userSpaceOnUse" color-interpolation-filters="sRGB">
<feFlood flood-opacity="0" result="BackgroundImageFix"/>
<feColorMatrix in="SourceAlpha" type="matrix" values="0 0 0 0 0 0 0 0 0 0 0 0 0 0 0 0 0 0 127 0" result="hardAlpha"/>
<feOffset dx="2" dy="1"/>
<feGaussianBlur stdDeviation="12.5"/>
<feColorMatrix type="matrix" values="0 0 0 0 0 0 0 0 0 0 0 0 0 0 0 0 0 0 0.33 0"/>
<feBlend mode="normal" in2="BackgroundImageFix" result="effect1_dropShadow_0_4"/>
<feBlend mode="normal" in="SourceGraphic" in2="effect1_dropShadow_0_4" result="shape"/>
</filter>
<linearGradient id="paint0_linear_0_4" x1="136" y1="0" x2="136" y2="308" gradientUnits="userSpaceOnUse">
<stop stop-color="#FF7979"/>
<stop offset="1" stop-color="#E85555"/>
</linearGradient>
<linearGradient id="paint1_linear_0_4" x1="136" y1="0" x2="136" y2="308" gradientUnits="userSpaceOnUse">
<stop stop-color="#FF7981"/>
<stop offset="1" stop-color="#E85567"/>
</linearGradient>
<linearGradient id="paint2_linear_0_4" x1="136" y1="0" x2="136" y2="308" gradientUnits="userSpaceOnUse">
<stop stop-color="#FF7981"/>
<stop offset="1" stop-color="#E85567"/>
</linearGradient>
<linearGradient id="paint3_linear_0_4" x1="-11.2723" y1="0.871132" x2="56.5069" y2="180.758" gradientUnits="userSpaceOnUse">
<stop stop-color="white" stop-opacity="0"/>
<stop offset="1" stop-color="white"/>
</linearGradient>
<linearGradient id="paint4_linear_0_4" x1="-17.2987" y1="-1.87801" x2="25.1204" y2="110.989" gradientUnits="userSpaceOnUse">
<stop stop-color="white" stop-opacity="0"/>
<stop offset="1" stop-color="white"/>
</linearGradient>
<linearGradient id="paint5_linear_0_4" x1="221" y1="0" x2="221" y2="102" gradientUnits="userSpaceOnUse">
<stop stop-color="#D03954"/>
<stop offset="1" stop-color="#C02A3C"/>
</linearGradient>
</defs>
</svg>
