<svg width="272" height="308" viewBox="0 0 272 308" fill="none" xmlns="http://www.w3.org/2000/svg">
<mask id="mask0_7_4" style="mask-type:alpha" maskUnits="userSpaceOnUse" x="0" y="0" width="272" height="308">
<path d="M250 308H22C9.84974 308 0 298.15 0 286V22C0 9.84974 9.84974 0 22 0H170L272 102V286C272 298.15 262.15 308 250 308Z" fill="url(#paint0_linear_7_4)"/>
</mask>
<g mask="url(#mask0_7_4)">
<path d="M250 308H22C9.84974 308 0 298.15 0 286V22C0 9.84974 9.84974 0 22 0H170L272 102V286C272 298.15 262.15 308 250 308Z" fill="url(#paint1_linear_7_4)"/>
<g opacity="0.12">
<path d="M227.316 212.918H221.909C220.572 194.387 213.254 176.745 200.963 162.686C195.089 155.966 188.258 150.26 180.75 145.715H199.527C202.032 152.348 208.446 157.082 215.949 157.082C225.627 157.082 233.5 149.209 233.5 139.531C233.5 129.853 225.627 121.98 215.949 121.98C208.446 121.98 202.032 126.714 199.527 133.348H153.93V128.164C153.93 124.749 151.161 121.98 147.746 121.98H125.012C121.597 121.98 118.828 124.749 118.828 128.164V133.348H72.4733C69.9675 126.714 63.5544 121.98 56.0508 121.98C46.3728 121.98 38.5 129.853 38.5 139.531C38.5 149.209 46.3728 157.082 56.0508 157.082C63.5544 157.082 69.9675 152.348 72.4733 145.715H92.0075C84.5005 150.26 77.6684 155.966 71.7945 162.686C59.5036 176.745 52.1858 194.387 50.8487 212.918H44.6836C41.2686 212.918 38.5 215.687 38.5 219.102V241.836C38.5 245.251 41.2686 248.02 44.6836 248.02H68.1758C71.5908 248.02 74.3594 245.251 74.3594 241.836V219.102C74.3594 215.687 71.5908 212.918 68.1758 212.918H63.2597C65.9217 181.705 88.5259 155.294 118.828 147.831V150.898C118.828 154.313 121.597 157.082 125.012 157.082H147.746C151.161 157.082 153.93 154.313 153.93 150.898V147.831C184.232 155.294 206.836 181.705 209.498 212.918H204.582C201.167 212.918 198.398 215.687 198.398 219.102V241.836C198.398 245.251 201.167 248.02 204.582 248.02H227.316C230.731 248.02 233.5 245.251 233.5 241.836V219.102C233.5 215.687 230.731 212.918 227.316 212.918ZM215.949 134.348C218.807 134.348 221.133 136.673 221.133 139.531C221.133 142.389 218.807 144.715 215.949 144.715C213.091 144.715 210.766 142.389 210.766 139.531C210.766 136.673 213.091 134.348 215.949 134.348ZM56.0508 144.715C53.193 144.715 50.8672 142.389 50.8672 139.531C50.8672 136.673 53.193 134.348 56.0508 134.348C58.9086 134.348 61.2344 136.673 61.2344 139.531C61.2344 142.389 58.9086 144.715 56.0508 144.715ZM61.9922 235.652H50.8672V225.285H61.9922V235.652ZM141.562 144.715H131.195V134.348H141.562V144.715ZM210.766 235.652V225.285H221.133V235.652H210.766Z" fill="white" stroke="white"/>
</g>
<g filter="url(#filter0_f_7_4)">
<rect x="48" y="149" width="178" height="84" fill="#CC1583" fill-opacity="0.15" style="mix-blend-mode:darken"/>
</g>
<path d="M41.272 218.79C37.4273 218.79 33.925 217.895 30.765 216.104C29.6063 215.419 29.027 214.445 29.027 213.181C29.027 212.338 29.2903 211.601 29.817 210.969C30.3963 210.284 31.1337 209.942 32.029 209.942C32.5557 209.942 33.0297 210.047 33.451 210.258C35.8737 211.417 38.3227 211.996 40.798 211.996C43.642 211.996 45.933 211.18 47.671 209.547C49.4617 207.914 50.357 204.833 50.357 200.304V166.097C50.357 165.096 50.6993 164.254 51.384 163.569C52.0687 162.832 52.9113 162.463 53.912 162.463C54.9127 162.463 55.7553 162.832 56.44 163.569C57.1773 164.254 57.546 165.096 57.546 166.097V199.83C57.546 206.729 55.9923 211.627 52.885 214.524C49.8303 217.368 45.9593 218.79 41.272 218.79ZM81.5478 218.395C80.5471 218.395 79.7045 218.053 79.0198 217.368C78.3351 216.683 77.9928 215.841 77.9928 214.84V166.492C77.9928 165.491 78.3351 164.649 79.0198 163.964C79.7045 163.227 80.5471 162.858 81.5478 162.858H99.5598C104.563 162.858 108.645 163.701 111.805 165.386C114.965 167.071 117.229 169.231 118.599 171.864C119.968 174.497 120.653 177.341 120.653 180.396C120.653 183.451 119.968 186.295 118.599 188.928C117.229 191.561 114.965 193.721 111.805 195.406C108.645 197.091 104.563 197.934 99.5598 197.934H85.1818V214.84C85.1818 215.841 84.8131 216.683 84.0758 217.368C83.3911 218.053 82.5485 218.395 81.5478 218.395ZM98.8488 191.14C104.221 191.14 107.986 190.113 110.146 188.059C112.358 186.005 113.464 183.451 113.464 180.396C113.464 177.341 112.358 174.787 110.146 172.733C107.986 170.679 104.221 169.652 98.8488 169.652H85.1818V191.14H98.8488ZM140.156 218C139.155 218 138.313 217.658 137.628 216.973C136.943 216.288 136.601 215.446 136.601 214.445V166.492C136.601 165.491 136.943 164.649 137.628 163.964C138.313 163.227 139.155 162.858 140.156 162.858H171.835C172.783 162.858 173.573 163.2 174.205 163.885C174.89 164.517 175.232 165.307 175.232 166.255C175.232 167.203 174.89 167.993 174.205 168.625C173.573 169.257 172.783 169.573 171.835 169.573H143.79V187.032H168.991C169.939 187.032 170.729 187.374 171.361 188.059C172.046 188.691 172.388 189.481 172.388 190.429C172.388 191.377 172.046 192.167 171.361 192.799C170.729 193.431 169.939 193.747 168.991 193.747H143.79V211.285H171.835C172.783 211.285 173.573 211.627 174.205 212.312C174.89 212.944 175.232 213.734 175.232 214.682C175.232 215.63 174.89 216.42 174.205 217.052C173.573 217.684 172.783 218 171.835 218H140.156ZM216.38 218.79C210.955 218.79 206.136 217.605 201.923 215.235C197.709 212.812 194.444 209.468 192.127 205.202C189.809 200.883 188.651 195.985 188.651 190.508C188.651 184.925 189.862 179.975 192.285 175.656C194.707 171.337 197.999 167.993 202.16 165.623C206.373 163.253 211.034 162.068 216.143 162.068C220.251 162.068 223.832 162.568 226.887 163.569C229.994 164.57 232.97 165.965 235.814 167.756C236.235 167.967 236.604 168.335 236.92 168.862C237.236 169.389 237.394 169.968 237.394 170.6C237.394 171.495 237.078 172.259 236.446 172.891C235.866 173.523 235.076 173.839 234.076 173.839C233.496 173.839 232.943 173.707 232.417 173.444C229.941 171.969 227.466 170.863 224.991 170.126C222.515 169.389 219.829 169.02 216.933 169.02C212.93 169.02 209.322 169.863 206.11 171.548C202.897 173.233 200.369 175.709 198.526 178.974C196.735 182.187 195.84 186.031 195.84 190.508C195.84 194.616 196.682 198.303 198.368 201.568C200.106 204.781 202.581 207.335 205.794 209.231C209.059 211.074 212.904 211.996 217.328 211.996C222.278 211.996 226.887 210.837 231.153 208.52V194.221H218.118C217.222 194.221 216.459 193.905 215.827 193.273C215.195 192.641 214.879 191.877 214.879 190.982C214.879 190.087 215.195 189.323 215.827 188.691C216.459 188.059 217.222 187.743 218.118 187.743H233.681C234.734 187.743 235.629 188.112 236.367 188.849C237.104 189.586 237.473 190.482 237.473 191.535V209.468C237.473 210.574 237.183 211.575 236.604 212.47C236.077 213.313 235.366 213.945 234.471 214.366C228.572 217.315 222.542 218.79 216.38 218.79Z" fill="white"/>
<path d="M30.765 216.104L29.7475 217.826L29.7632 217.835L29.779 217.844L30.765 216.104ZM29.817 210.969L28.2902 209.677L28.2854 209.683L28.2806 209.689L29.817 210.969ZM33.451 210.258L32.5566 212.047L32.5723 212.055L32.5881 212.062L33.451 210.258ZM47.671 209.547L46.3235 208.069L46.3125 208.079L46.3017 208.089L47.671 209.547ZM51.384 163.569L52.7982 164.983L52.8244 164.957L52.8496 164.93L51.384 163.569ZM56.44 163.569L54.9744 164.93L55.0248 164.984L55.0791 165.035L56.44 163.569ZM52.885 214.524L54.2478 215.988L54.2488 215.987L52.885 214.524ZM41.272 216.79C37.752 216.79 34.5926 215.974 31.751 214.364L29.779 217.844C33.2574 219.815 37.1027 220.79 41.272 220.79V216.79ZM31.7825 214.382C31.1847 214.029 31.027 213.684 31.027 213.181H27.027C27.027 215.206 28.028 216.81 29.7475 217.826L31.7825 214.382ZM31.027 213.181C31.027 212.794 31.1341 212.513 31.3534 212.249L28.2806 209.689C27.4465 210.689 27.027 211.883 27.027 213.181H31.027ZM31.3438 212.261C31.5439 212.024 31.7231 211.942 32.029 211.942V207.942C30.5442 207.942 29.2488 208.544 28.2902 209.677L31.3438 212.261ZM32.029 211.942C32.2822 211.942 32.4443 211.991 32.5566 212.047L34.3454 208.469C33.615 208.104 32.8291 207.942 32.029 207.942V211.942ZM32.5881 212.062C35.2569 213.339 37.9993 213.996 40.798 213.996V209.996C38.6461 209.996 36.4904 209.495 34.3139 208.454L32.5881 212.062ZM40.798 213.996C44.0467 213.996 46.862 213.051 49.0404 211.005L46.3017 208.089C45.004 209.308 43.2373 209.996 40.798 209.996V213.996ZM49.0185 211.025C51.4673 208.792 52.357 204.951 52.357 200.304H48.357C48.357 204.716 47.456 207.036 46.3235 208.069L49.0185 211.025ZM52.357 200.304V166.097H48.357V200.304H52.357ZM52.357 166.097C52.357 165.607 52.5024 165.279 52.7982 164.983L49.9698 162.155C48.8962 163.228 48.357 164.586 48.357 166.097H52.357ZM52.8496 164.93C53.1582 164.598 53.471 164.463 53.912 164.463V160.463C52.3517 160.463 50.9791 161.066 49.9184 162.208L52.8496 164.93ZM53.912 164.463C54.353 164.463 54.6658 164.598 54.9744 164.93L57.9056 162.208C56.8449 161.066 55.4723 160.463 53.912 160.463V164.463ZM55.0791 165.035C55.4115 165.343 55.546 165.656 55.546 166.097H59.546C59.546 164.537 58.9432 163.164 57.8009 162.103L55.0791 165.035ZM55.546 166.097V199.83H59.546V166.097H55.546ZM55.546 199.83C55.546 206.509 54.0299 210.723 51.5212 213.061L54.2488 215.987C57.9548 212.532 59.546 206.949 59.546 199.83H55.546ZM51.5222 213.06C48.8841 215.516 45.5208 216.79 41.272 216.79V220.79C46.3978 220.79 50.7766 219.22 54.2478 215.988L51.5222 213.06ZM79.0198 217.368L80.434 215.954L80.434 215.954L79.0198 217.368ZM79.0198 163.964L80.434 165.378L80.4602 165.352L80.4854 165.325L79.0198 163.964ZM111.805 165.386L112.746 163.621L111.805 165.386ZM118.599 171.864L116.824 172.787L116.824 172.787L118.599 171.864ZM118.599 188.928L116.824 188.005L116.824 188.005L118.599 188.928ZM111.805 195.406L112.746 197.171L111.805 195.406ZM85.1818 197.934V195.934H83.1818V197.934H85.1818ZM84.0758 217.368L82.7149 215.902L82.6878 215.928L82.6616 215.954L84.0758 217.368ZM110.146 188.059L108.785 186.593L108.776 186.602L108.767 186.61L110.146 188.059ZM110.146 172.733L108.767 174.182L108.776 174.19L108.785 174.199L110.146 172.733ZM85.1818 169.652V167.652H83.1818V169.652H85.1818ZM85.1818 191.14H83.1818V193.14H85.1818V191.14ZM81.5478 216.395C81.0577 216.395 80.7298 216.25 80.434 215.954L77.6056 218.782C78.6791 219.856 80.0365 220.395 81.5478 220.395V216.395ZM80.434 215.954C80.1382 215.658 79.9928 215.33 79.9928 214.84H75.9928C75.9928 216.351 76.5321 217.709 77.6056 218.782L80.434 215.954ZM79.9928 214.84V166.492H75.9928V214.84H79.9928ZM79.9928 166.492C79.9928 166.002 80.1382 165.674 80.434 165.378L77.6056 162.55C76.5321 163.623 75.9928 164.981 75.9928 166.492H79.9928ZM80.4854 165.325C80.794 164.993 81.1068 164.858 81.5478 164.858V160.858C79.9875 160.858 78.6149 161.461 77.5542 162.603L80.4854 165.325ZM81.5478 164.858H99.5598V160.858H81.5478V164.858ZM99.5598 164.858C104.358 164.858 108.085 165.669 110.864 167.151L112.746 163.621C109.204 161.732 104.768 160.858 99.5598 160.858V164.858ZM110.864 167.151C113.742 168.686 115.677 170.58 116.824 172.787L120.373 170.941C118.782 167.881 116.188 165.457 112.746 163.621L110.864 167.151ZM116.824 172.787C118.041 175.127 118.653 177.653 118.653 180.396H122.653C122.653 177.03 121.895 173.868 120.373 170.941L116.824 172.787ZM118.653 180.396C118.653 183.139 118.041 185.665 116.824 188.005L120.373 189.851C121.895 186.924 122.653 183.762 122.653 180.396H118.653ZM116.824 188.005C115.677 190.212 113.742 192.106 110.864 193.641L112.746 197.171C116.188 195.335 118.782 192.911 120.373 189.851L116.824 188.005ZM110.864 193.641C108.085 195.123 104.358 195.934 99.5598 195.934V199.934C104.768 199.934 109.204 199.06 112.746 197.171L110.864 193.641ZM99.5598 195.934H85.1818V199.934H99.5598V195.934ZM83.1818 197.934V214.84H87.1818V197.934H83.1818ZM83.1818 214.84C83.1818 215.281 83.0473 215.594 82.7149 215.902L85.4367 218.834C86.579 217.773 87.1818 216.4 87.1818 214.84H83.1818ZM82.6616 215.954C82.3658 216.25 82.0379 216.395 81.5478 216.395V220.395C83.0591 220.395 84.4165 219.856 85.49 218.782L82.6616 215.954ZM98.8488 193.14C104.361 193.14 108.79 192.109 111.524 189.508L108.767 186.61C107.183 188.117 104.081 189.14 98.8488 189.14V193.14ZM111.507 189.525C114.132 187.087 115.464 183.999 115.464 180.396H111.464C111.464 182.902 110.584 184.923 108.785 186.593L111.507 189.525ZM115.464 180.396C115.464 176.793 114.132 173.705 111.507 171.267L108.785 174.199C110.584 175.869 111.464 177.89 111.464 180.396H115.464ZM111.524 171.284C108.79 168.683 104.361 167.652 98.8488 167.652V171.652C104.081 171.652 107.183 172.675 108.767 174.182L111.524 171.284ZM98.8488 167.652H85.1818V171.652H98.8488V167.652ZM83.1818 169.652V191.14H87.1818V169.652H83.1818ZM85.1818 193.14H98.8488V189.14H85.1818V193.14ZM137.628 216.973L139.042 215.559L139.042 215.559L137.628 216.973ZM137.628 163.964L139.042 165.378L139.068 165.352L139.094 165.325L137.628 163.964ZM174.205 163.885L172.735 165.242L172.79 165.3L172.848 165.355L174.205 163.885ZM174.205 168.625L172.848 167.155L172.819 167.183L172.791 167.211L174.205 168.625ZM143.79 169.573V167.573H141.79V169.573H143.79ZM143.79 187.032H141.79V189.032H143.79V187.032ZM171.361 188.059L169.891 189.416L169.946 189.474L170.004 189.529L171.361 188.059ZM171.361 192.799L170.004 191.329L169.975 191.357L169.947 191.385L171.361 192.799ZM143.79 193.747V191.747H141.79V193.747H143.79ZM143.79 211.285H141.79V213.285H143.79V211.285ZM174.205 212.312L172.735 213.669L172.79 213.727L172.848 213.782L174.205 212.312ZM174.205 217.052L172.848 215.582L172.819 215.61L172.791 215.638L174.205 217.052ZM140.156 216C139.666 216 139.338 215.855 139.042 215.559L136.214 218.387C137.287 219.461 138.645 220 140.156 220V216ZM139.042 215.559C138.746 215.263 138.601 214.935 138.601 214.445H134.601C134.601 215.956 135.14 217.314 136.214 218.387L139.042 215.559ZM138.601 214.445V166.492H134.601V214.445H138.601ZM138.601 166.492C138.601 166.002 138.746 165.674 139.042 165.378L136.214 162.55C135.14 163.623 134.601 164.981 134.601 166.492H138.601ZM139.094 165.325C139.402 164.993 139.715 164.858 140.156 164.858V160.858C138.596 160.858 137.223 161.461 136.162 162.603L139.094 165.325ZM140.156 164.858H171.835V160.858H140.156V164.858ZM171.835 164.858C172.236 164.858 172.489 164.975 172.735 165.242L175.675 162.528C174.656 161.426 173.33 160.858 171.835 160.858V164.858ZM172.848 165.355C173.115 165.601 173.232 165.854 173.232 166.255H177.232C177.232 164.76 176.664 163.433 175.561 162.415L172.848 165.355ZM173.232 166.255C173.232 166.656 173.115 166.909 172.848 167.155L175.561 170.095C176.664 169.077 177.232 167.75 177.232 166.255H173.232ZM172.791 167.211C172.558 167.443 172.288 167.573 171.835 167.573V171.573C173.278 171.573 174.588 171.071 175.619 170.039L172.791 167.211ZM171.835 167.573H143.79V171.573H171.835V167.573ZM141.79 169.573V187.032H145.79V169.573H141.79ZM143.79 189.032H168.991V185.032H143.79V189.032ZM168.991 189.032C169.392 189.032 169.645 189.149 169.891 189.416L172.831 186.702C171.812 185.6 170.486 185.032 168.991 185.032V189.032ZM170.004 189.529C170.271 189.775 170.388 190.028 170.388 190.429H174.388C174.388 188.934 173.82 187.607 172.717 186.589L170.004 189.529ZM170.388 190.429C170.388 190.83 170.271 191.083 170.004 191.329L172.717 194.269C173.82 193.251 174.388 191.924 174.388 190.429H170.388ZM169.947 191.385C169.714 191.617 169.444 191.747 168.991 191.747V195.747C170.434 195.747 171.744 195.245 172.775 194.213L169.947 191.385ZM168.991 191.747H143.79V195.747H168.991V191.747ZM141.79 193.747V211.285H145.79V193.747H141.79ZM143.79 213.285H171.835V209.285H143.79V213.285ZM171.835 213.285C172.236 213.285 172.489 213.402 172.735 213.669L175.675 210.955C174.656 209.853 173.33 209.285 171.835 209.285V213.285ZM172.848 213.782C173.115 214.028 173.232 214.281 173.232 214.682H177.232C177.232 213.187 176.664 211.86 175.561 210.842L172.848 213.782ZM173.232 214.682C173.232 215.083 173.115 215.336 172.848 215.582L175.561 218.522C176.664 217.504 177.232 216.177 177.232 214.682H173.232ZM172.791 215.638C172.558 215.87 172.288 216 171.835 216V220C173.278 220 174.588 219.498 175.619 218.466L172.791 215.638ZM171.835 216H140.156V220H171.835V216ZM201.923 215.235L200.926 216.969L200.934 216.974L200.942 216.978L201.923 215.235ZM192.127 205.202L190.364 206.148L190.369 206.157L192.127 205.202ZM192.285 175.656L194.029 176.635L194.029 176.635L192.285 175.656ZM202.16 165.623L201.179 163.88L201.17 163.885L202.16 165.623ZM226.887 163.569L226.264 165.47L226.274 165.473L226.887 163.569ZM235.814 167.756L234.748 169.448L234.831 169.501L234.919 169.545L235.814 167.756ZM236.92 168.862L235.205 169.891L235.205 169.891L236.92 168.862ZM236.446 172.891L235.032 171.477L235.001 171.508L234.972 171.54L236.446 172.891ZM232.417 173.444L231.393 175.162L231.456 175.2L231.522 175.233L232.417 173.444ZM224.991 170.126L225.562 168.209L225.562 168.209L224.991 170.126ZM206.11 171.548L207.039 173.319L207.039 173.319L206.11 171.548ZM198.526 178.974L196.784 177.991L196.779 178L198.526 178.974ZM198.368 201.568L196.591 202.485L196.599 202.503L196.609 202.52L198.368 201.568ZM205.794 209.231L204.777 210.953L204.794 210.963L204.811 210.973L205.794 209.231ZM231.153 208.52L232.107 210.277L233.153 209.71V208.52H231.153ZM231.153 194.221H233.153V192.221H231.153V194.221ZM215.827 193.273L214.413 194.687L215.827 193.273ZM215.827 188.691L214.413 187.277L215.827 188.691ZM236.604 212.47L234.925 211.383L234.916 211.397L234.908 211.41L236.604 212.47ZM234.471 214.366L233.619 212.556L233.598 212.566L233.576 212.577L234.471 214.366ZM216.38 216.79C211.256 216.79 206.782 215.674 202.903 213.492L200.942 216.978C205.49 219.536 210.654 220.79 216.38 220.79V216.79ZM202.92 213.501C199.027 211.263 196.025 208.188 193.884 204.247L190.369 206.157C192.863 210.748 196.392 214.362 200.926 216.969L202.92 213.501ZM193.889 204.256C191.745 200.261 190.651 195.695 190.651 190.508H186.651C186.651 196.276 187.873 201.505 190.364 206.148L193.889 204.256ZM190.651 190.508C190.651 185.224 191.795 180.618 194.029 176.635L190.541 174.677C187.93 179.332 186.651 184.627 186.651 190.508H190.651ZM194.029 176.635C196.28 172.621 199.316 169.545 203.15 167.361L201.17 163.885C196.682 166.441 193.135 170.053 190.541 174.677L194.029 176.635ZM203.14 167.366C207.037 165.174 211.357 164.068 216.143 164.068V160.068C210.711 160.068 205.709 161.332 201.179 163.88L203.14 167.366ZM216.143 164.068C220.095 164.068 223.457 164.55 226.264 165.47L227.509 161.668C224.207 160.587 220.407 160.068 216.143 160.068V164.068ZM226.274 165.473C229.217 166.421 232.041 167.744 234.748 169.448L236.879 166.064C233.898 164.186 230.771 162.719 227.5 161.665L226.274 165.473ZM234.919 169.545C234.92 169.545 234.926 169.548 234.937 169.556C234.949 169.565 234.967 169.58 234.992 169.605C235.042 169.655 235.116 169.744 235.205 169.891L238.635 167.833C238.182 167.078 237.559 166.392 236.708 165.967L234.919 169.545ZM235.205 169.891C235.329 170.098 235.394 170.319 235.394 170.6H239.394C239.394 169.617 239.143 168.68 238.635 167.833L235.205 169.891ZM235.394 170.6C235.394 170.966 235.288 171.221 235.032 171.477L237.86 174.305C238.868 173.297 239.394 172.025 239.394 170.6H235.394ZM234.972 171.54C234.835 171.688 234.618 171.839 234.076 171.839V175.839C235.534 175.839 236.898 175.358 237.92 174.242L234.972 171.54ZM234.076 171.839C233.812 171.839 233.565 171.782 233.311 171.655L231.522 175.233C232.322 175.633 233.181 175.839 234.076 175.839V171.839ZM233.44 171.726C230.839 170.176 228.213 168.999 225.562 168.209L224.42 172.043C226.72 172.728 229.044 173.763 231.393 175.162L233.44 171.726ZM225.562 168.209C222.88 167.41 220 167.02 216.933 167.02V171.02C219.659 171.02 222.151 171.367 224.42 172.043L225.562 168.209ZM216.933 167.02C212.641 167.02 208.709 167.926 205.181 169.777L207.039 173.319C209.936 171.799 213.22 171.02 216.933 171.02V167.02ZM205.181 169.777C201.615 171.647 198.81 174.402 196.784 177.991L200.267 179.957C201.928 177.015 204.179 174.819 207.039 173.319L205.181 169.777ZM196.779 178C194.79 181.569 193.84 185.764 193.84 190.508H197.84C197.84 186.299 198.681 182.804 200.273 179.948L196.779 178ZM193.84 190.508C193.84 194.897 194.742 198.904 196.591 202.485L200.145 200.651C198.623 197.701 197.84 194.335 197.84 190.508H193.84ZM196.609 202.52C198.523 206.059 201.259 208.877 204.777 210.953L206.81 207.509C203.904 205.793 201.688 203.502 200.127 200.616L196.609 202.52ZM204.811 210.973C208.426 213.014 212.622 213.996 217.328 213.996V209.996C213.186 209.996 209.692 209.135 206.777 207.489L204.811 210.973ZM217.328 213.996C222.605 213.996 227.542 212.757 232.107 210.277L230.198 206.763C226.231 208.917 221.952 209.996 217.328 209.996V213.996ZM233.153 208.52V194.221H229.153V208.52H233.153ZM231.153 192.221H218.118V196.221H231.153V192.221ZM218.118 192.221C217.752 192.221 217.497 192.115 217.241 191.859L214.413 194.687C215.42 195.695 216.693 196.221 218.118 196.221V192.221ZM217.241 191.859C216.985 191.603 216.879 191.348 216.879 190.982H212.879C212.879 192.407 213.405 193.679 214.413 194.687L217.241 191.859ZM216.879 190.982C216.879 190.616 216.985 190.361 217.241 190.105L214.413 187.277C213.405 188.285 212.879 189.557 212.879 190.982H216.879ZM217.241 190.105C217.497 189.849 217.752 189.743 218.118 189.743V185.743C216.693 185.743 215.42 186.269 214.413 187.277L217.241 190.105ZM218.118 189.743H233.681V185.743H218.118V189.743ZM233.681 189.743C234.21 189.743 234.595 189.905 234.953 190.263L237.781 187.435C236.664 186.318 235.259 185.743 233.681 185.743V189.743ZM234.953 190.263C235.311 190.621 235.473 191.006 235.473 191.535H239.473C239.473 189.957 238.898 188.551 237.781 187.435L234.953 190.263ZM235.473 191.535V209.468H239.473V191.535H235.473ZM235.473 209.468C235.473 210.204 235.287 210.824 234.925 211.383L238.283 213.557C239.08 212.325 239.473 210.944 239.473 209.468H235.473ZM234.908 211.41C234.584 211.928 234.165 212.299 233.619 212.556L235.322 216.176C236.567 215.59 237.57 214.697 238.3 213.53L234.908 211.41ZM233.576 212.577C227.935 215.398 222.21 216.79 216.38 216.79V220.79C222.874 220.79 229.209 219.233 235.365 216.155L233.576 212.577Z" fill="white"/>
<mask id="mask1_7_4" style="mask-type:alpha" maskUnits="userSpaceOnUse" x="0" y="0" width="272" height="308">
<path d="M250 308H22C9.84974 308 0 298.15 0 286V22C0 9.84974 9.84974 0 22 0H170L272 102V286C272 298.15 262.15 308 250 308Z" fill="url(#paint2_linear_7_4)"/>
</mask>
<g mask="url(#mask1_7_4)">
<ellipse opacity="0.06" cx="-14.5" cy="-12.5" rx="223.5" ry="214.5" fill="url(#paint3_linear_7_4)"/>
<ellipse opacity="0.05" cx="-14.5" cy="-12.5" rx="140.5" ry="134.5" fill="url(#paint4_linear_7_4)"/>
</g>
<g filter="url(#filter1_d_7_4)">
<path d="M272 102H192C179.85 102 170 92.1503 170 80V0L272 102Z" fill="url(#paint5_linear_7_4)"/>
</g>
</g>
<defs>
<filter id="filter0_f_7_4" x="9" y="110" width="256" height="162" filterUnits="userSpaceOnUse" color-interpolation-filters="sRGB">
<feFlood flood-opacity="0" result="BackgroundImageFix"/>
<feBlend mode="normal" in="SourceGraphic" in2="BackgroundImageFix" result="shape"/>
<feGaussianBlur stdDeviation="19.5" result="effect1_foregroundBlur_7_4"/>
</filter>
<filter id="filter1_d_7_4" x="147" y="-24" width="152" height="152" filterUnits="userSpaceOnUse" color-interpolation-filters="sRGB">
<feFlood flood-opacity="0" result="BackgroundImageFix"/>
<feColorMatrix in="SourceAlpha" type="matrix" values="0 0 0 0 0 0 0 0 0 0 0 0 0 0 0 0 0 0 127 0" result="hardAlpha"/>
<feOffset dx="2" dy="1"/>
<feGaussianBlur stdDeviation="12.5"/>
<feColorMatrix type="matrix" values="0 0 0 0 0 0 0 0 0 0 0 0 0 0 0 0 0 0 0.33 0"/>
<feBlend mode="normal" in2="BackgroundImageFix" result="effect1_dropShadow_7_4"/>
<feBlend mode="normal" in="SourceGraphic" in2="effect1_dropShadow_7_4" result="shape"/>
</filter>
<linearGradient id="paint0_linear_7_4" x1="136" y1="0" x2="136" y2="308" gradientUnits="userSpaceOnUse">
<stop stop-color="#FF7979"/>
<stop offset="1" stop-color="#E85555"/>
</linearGradient>
<linearGradient id="paint1_linear_7_4" x1="136" y1="0" x2="136" y2="308" gradientUnits="userSpaceOnUse">
<stop stop-color="#FF6AC3"/>
<stop offset="1" stop-color="#DD3C9C"/>
</linearGradient>
<linearGradient id="paint2_linear_7_4" x1="136" y1="0" x2="136" y2="308" gradientUnits="userSpaceOnUse">
<stop stop-color="#FF6AC3"/>
<stop offset="1" stop-color="#DD3C9C"/>
</linearGradient>
<linearGradient id="paint3_linear_7_4" x1="1.72772" y1="-5.12887" x2="69.5069" y2="174.758" gradientUnits="userSpaceOnUse">
<stop stop-color="white" stop-opacity="0"/>
<stop offset="1" stop-color="white"/>
</linearGradient>
<linearGradient id="paint4_linear_7_4" x1="-4.29868" y1="-7.87801" x2="38.1204" y2="104.989" gradientUnits="userSpaceOnUse">
<stop stop-color="white" stop-opacity="0"/>
<stop offset="1" stop-color="white"/>
</linearGradient>
<linearGradient id="paint5_linear_7_4" x1="221" y1="0" x2="221" y2="102" gradientUnits="userSpaceOnUse">
<stop stop-color="#F430A6"/>
<stop offset="1" stop-color="#BF0B77"/>
</linearGradient>
</defs>
</svg>
