<svg width="272" height="308" viewBox="0 0 272 308" fill="none" xmlns="http://www.w3.org/2000/svg">
<mask id="mask0_0_25" style="mask-type:alpha" maskUnits="userSpaceOnUse" x="0" y="0" width="272" height="308">
<path d="M250 308H22C9.84974 308 0 298.15 0 286V22C0 9.84974 9.84974 0 22 0H170L272 102V286C272 298.15 262.15 308 250 308Z" fill="url(#paint0_linear_0_25)"/>
</mask>
<g mask="url(#mask0_0_25)">
<path d="M250 308H22C9.84974 308 0 298.15 0 286V22C0 9.84974 9.84974 0 22 0H170L272 102V286C272 298.15 262.15 308 250 308Z" fill="url(#paint1_linear_0_25)"/>
<g filter="url(#filter0_f_0_25)">
<rect x="48" y="149" width="178" height="84" fill="#5552E9" fill-opacity="0.39" style="mix-blend-mode:darken"/>
</g>
<path opacity="0.12" d="M192 109H80C73.6348 109 67.5303 111.529 63.0294 116.029C58.5286 120.53 56 126.635 56 133V245C56 251.365 58.5286 257.47 63.0294 261.971C67.5303 266.471 73.6348 269 80 269H192C193.316 268.982 194.628 268.848 195.92 268.6L198.32 268.04H199.28L202.24 266.92L203.28 266.36C204.08 265.88 204.96 265.48 205.76 264.92C206.828 264.134 207.844 263.279 208.8 262.36L209.36 261.64C210.145 260.844 210.868 259.988 211.52 259.08L212.24 258.04C212.799 257.149 213.281 256.213 213.68 255.24C213.9 254.856 214.087 254.455 214.24 254.04C214.64 253.08 214.88 252.04 215.2 251V249.8C215.654 248.237 215.922 246.626 216 245V133C216 126.635 213.471 120.53 208.971 116.029C204.47 111.529 198.365 109 192 109ZM80 253C77.8783 253 75.8434 252.157 74.3431 250.657C72.8429 249.157 72 247.122 72 245V210.52L98.32 184.12C99.0637 183.37 99.9485 182.775 100.923 182.369C101.898 181.963 102.944 181.754 104 181.754C105.056 181.754 106.102 181.963 107.077 182.369C108.051 182.775 108.936 183.37 109.68 184.12L178.48 253H80ZM200 245C199.992 245.986 199.803 246.963 199.44 247.88C199.257 248.27 199.043 248.645 198.8 249C198.586 249.339 198.345 249.66 198.08 249.96L155.28 207.16L162.32 200.12C163.064 199.37 163.949 198.775 164.923 198.369C165.898 197.963 166.944 197.754 168 197.754C169.056 197.754 170.102 197.963 171.077 198.369C172.051 198.775 172.936 199.37 173.68 200.12L200 226.52V245ZM200 203.88L184.96 189C180.382 184.656 174.311 182.234 168 182.234C161.689 182.234 155.618 184.656 151.04 189L144 196.04L120.96 173C116.382 168.656 110.311 166.234 104 166.234C97.6888 166.234 91.6182 168.656 87.04 173L72 187.88V133C72 130.878 72.8429 128.843 74.3431 127.343C75.8434 125.843 77.8783 125 80 125H192C194.122 125 196.157 125.843 197.657 127.343C199.157 128.843 200 130.878 200 133V203.88Z" fill="white"/>
<g filter="url(#filter1_d_0_25)">
<path d="M53.218 217.395C52.2173 217.395 51.3747 217.053 50.69 216.368C50.0053 215.683 49.663 214.841 49.663 213.84V165.492C49.663 164.491 50.0053 163.649 50.69 162.964C51.3747 162.227 52.2173 161.858 53.218 161.858H71.23C76.2333 161.858 80.315 162.701 83.475 164.386C86.635 166.071 88.8997 168.231 90.269 170.864C91.6383 173.497 92.323 176.341 92.323 179.396C92.323 182.451 91.6383 185.295 90.269 187.928C88.8997 190.561 86.635 192.721 83.475 194.406C80.315 196.091 76.2333 196.934 71.23 196.934H56.852V213.84C56.852 214.841 56.4833 215.683 55.746 216.368C55.0613 217.053 54.2187 217.395 53.218 217.395ZM70.519 190.14C75.891 190.14 79.6567 189.113 81.816 187.059C84.028 185.005 85.134 182.451 85.134 179.396C85.134 176.341 84.028 173.787 81.816 171.733C79.6567 169.679 75.891 168.652 70.519 168.652H56.852V190.14H70.519ZM111.826 217.395C110.825 217.395 109.983 217.053 109.298 216.368C108.613 215.683 108.271 214.841 108.271 213.84V166.677C108.271 165.255 108.771 164.044 109.772 163.043C110.773 161.99 111.984 161.463 113.406 161.463H114.433C116.118 161.463 117.567 162.253 118.778 163.833L149.193 207.757V165.097C149.193 164.096 149.535 163.254 150.22 162.569C150.905 161.832 151.747 161.463 152.748 161.463C153.749 161.463 154.591 161.832 155.276 162.569C156.013 163.254 156.382 164.096 156.382 165.097V212.26C156.382 213.682 155.855 214.893 154.802 215.894C153.801 216.895 152.59 217.395 151.168 217.395H150.22C149.377 217.395 148.587 217.211 147.85 216.842C147.113 216.421 146.507 215.894 146.033 215.262L115.46 171.101V213.84C115.46 214.841 115.091 215.683 114.354 216.368C113.669 217.053 112.827 217.395 111.826 217.395ZM201.628 217.79C196.203 217.79 191.384 216.605 187.171 214.235C182.958 211.812 179.692 208.468 177.375 204.202C175.058 199.883 173.899 194.985 173.899 189.508C173.899 183.925 175.11 178.975 177.533 174.656C179.956 170.337 183.247 166.993 187.408 164.623C191.621 162.253 196.282 161.068 201.391 161.068C205.499 161.068 209.08 161.568 212.135 162.569C215.242 163.57 218.218 164.965 221.062 166.756C221.483 166.967 221.852 167.335 222.168 167.862C222.484 168.389 222.642 168.968 222.642 169.6C222.642 170.495 222.326 171.259 221.694 171.891C221.115 172.523 220.325 172.839 219.324 172.839C218.745 172.839 218.192 172.707 217.665 172.444C215.19 170.969 212.714 169.863 210.239 169.126C207.764 168.389 205.078 168.02 202.181 168.02C198.178 168.02 194.571 168.863 191.358 170.548C188.145 172.233 185.617 174.709 183.774 177.974C181.983 181.187 181.088 185.031 181.088 189.508C181.088 193.616 181.931 197.303 183.616 200.568C185.354 203.781 187.829 206.335 191.042 208.231C194.307 210.074 198.152 210.996 202.576 210.996C207.527 210.996 212.135 209.837 216.401 207.52V193.221H203.366C202.471 193.221 201.707 192.905 201.075 192.273C200.443 191.641 200.127 190.877 200.127 189.982C200.127 189.087 200.443 188.323 201.075 187.691C201.707 187.059 202.471 186.743 203.366 186.743H218.929C219.982 186.743 220.878 187.112 221.615 187.849C222.352 188.586 222.721 189.482 222.721 190.535V208.468C222.721 209.574 222.431 210.575 221.852 211.47C221.325 212.313 220.614 212.945 219.719 213.366C213.82 216.315 207.79 217.79 201.628 217.79Z" fill="white"/>
<path d="M50.69 216.368L52.1042 214.954L52.1042 214.954L50.69 216.368ZM50.69 162.964L52.1042 164.378L52.1304 164.352L52.1556 164.325L50.69 162.964ZM83.475 164.386L84.4162 162.621L83.475 164.386ZM90.269 170.864L88.4946 171.787L88.4946 171.787L90.269 170.864ZM90.269 187.928L88.4946 187.005L88.4946 187.005L90.269 187.928ZM83.475 194.406L84.4162 196.171L83.475 194.406ZM56.852 196.934V194.934H54.852V196.934H56.852ZM55.746 216.368L54.3851 214.902L54.358 214.928L54.3318 214.954L55.746 216.368ZM81.816 187.059L80.4551 185.593L80.4463 185.602L80.4376 185.61L81.816 187.059ZM81.816 171.733L80.4376 173.182L80.4463 173.19L80.4551 173.199L81.816 171.733ZM56.852 168.652V166.652H54.852V168.652H56.852ZM56.852 190.14H54.852V192.14H56.852V190.14ZM53.218 215.395C52.7279 215.395 52.4 215.25 52.1042 214.954L49.2758 217.782C50.3493 218.856 51.7067 219.395 53.218 219.395V215.395ZM52.1042 214.954C51.8084 214.658 51.663 214.33 51.663 213.84H47.663C47.663 215.351 48.2022 216.709 49.2758 217.782L52.1042 214.954ZM51.663 213.84V165.492H47.663V213.84H51.663ZM51.663 165.492C51.663 165.002 51.8084 164.674 52.1042 164.378L49.2758 161.55C48.2023 162.623 47.663 163.981 47.663 165.492H51.663ZM52.1556 164.325C52.4642 163.993 52.777 163.858 53.218 163.858V159.858C51.6577 159.858 50.2851 160.461 49.2244 161.603L52.1556 164.325ZM53.218 163.858H71.23V159.858H53.218V163.858ZM71.23 163.858C76.0282 163.858 79.7555 164.669 82.5338 166.151L84.4162 162.621C80.8745 160.732 76.4385 159.858 71.23 159.858V163.858ZM82.5338 166.151C85.4123 167.686 87.3472 169.58 88.4946 171.787L92.0434 169.941C90.4521 166.881 87.8578 164.457 84.4162 162.621L82.5338 166.151ZM88.4946 171.787C89.7113 174.127 90.323 176.653 90.323 179.396H94.323C94.323 176.03 93.5654 172.868 92.0434 169.941L88.4946 171.787ZM90.323 179.396C90.323 182.139 89.7113 184.665 88.4946 187.005L92.0434 188.851C93.5654 185.924 94.323 182.762 94.323 179.396H90.323ZM88.4946 187.005C87.3472 189.212 85.4123 191.106 82.5338 192.641L84.4162 196.171C87.8578 194.335 90.4521 191.911 92.0434 188.851L88.4946 187.005ZM82.5338 192.641C79.7555 194.123 76.0282 194.934 71.23 194.934V198.934C76.4385 198.934 80.8745 198.06 84.4162 196.171L82.5338 192.641ZM71.23 194.934H56.852V198.934H71.23V194.934ZM54.852 196.934V213.84H58.852V196.934H54.852ZM54.852 213.84C54.852 214.281 54.7175 214.594 54.3851 214.902L57.1069 217.834C58.2492 216.773 58.852 215.4 58.852 213.84H54.852ZM54.3318 214.954C54.036 215.25 53.7081 215.395 53.218 215.395V219.395C54.7293 219.395 56.0867 218.856 57.1602 217.782L54.3318 214.954ZM70.519 192.14C76.031 192.14 80.4605 191.109 83.1944 188.508L80.4376 185.61C78.8529 187.117 75.751 188.14 70.519 188.14V192.14ZM83.1769 188.525C85.8019 186.087 87.134 182.999 87.134 179.396H83.134C83.134 181.902 82.2541 183.923 80.4551 185.593L83.1769 188.525ZM87.134 179.396C87.134 175.793 85.8019 172.705 83.1769 170.267L80.4551 173.199C82.2541 174.869 83.134 176.89 83.134 179.396H87.134ZM83.1944 170.284C80.4605 167.683 76.031 166.652 70.519 166.652V170.652C75.751 170.652 78.8529 171.675 80.4376 173.182L83.1944 170.284ZM70.519 166.652H56.852V170.652H70.519V166.652ZM54.852 168.652V190.14H58.852V168.652H54.852ZM56.852 192.14H70.519V188.14H56.852V192.14ZM109.298 216.368L110.712 214.954L110.712 214.954L109.298 216.368ZM109.772 163.043L111.186 164.457L111.204 164.439L111.222 164.42L109.772 163.043ZM118.778 163.833L120.422 162.694L120.395 162.655L120.365 162.616L118.778 163.833ZM149.193 207.757L147.549 208.896L151.193 214.158V207.757H149.193ZM150.22 162.569L151.634 163.983L151.661 163.957L151.686 163.93L150.22 162.569ZM155.276 162.569L153.811 163.93L153.861 163.984L153.915 164.035L155.276 162.569ZM154.802 215.894L153.425 214.444L153.406 214.462L153.388 214.48L154.802 215.894ZM147.85 216.842L146.858 218.578L146.906 218.606L146.956 218.631L147.85 216.842ZM146.033 215.262L144.389 216.4L144.41 216.432L144.433 216.462L146.033 215.262ZM115.46 171.101L117.105 169.963L113.46 164.698V171.101H115.46ZM114.354 216.368L112.993 214.902L112.966 214.928L112.94 214.954L114.354 216.368ZM111.826 215.395C111.336 215.395 111.008 215.25 110.712 214.954L107.884 217.782C108.957 218.856 110.315 219.395 111.826 219.395V215.395ZM110.712 214.954C110.417 214.658 110.271 214.33 110.271 213.84H106.271C106.271 215.351 106.81 216.709 107.884 217.782L110.712 214.954ZM110.271 213.84V166.677H106.271V213.84H110.271ZM110.271 166.677C110.271 165.783 110.563 165.081 111.186 164.457L108.358 161.629C106.98 163.007 106.271 164.727 106.271 166.677H110.271ZM111.222 164.42C111.854 163.755 112.546 163.463 113.406 163.463V159.463C111.423 159.463 109.691 160.224 108.322 161.665L111.222 164.42ZM113.406 163.463H114.433V159.463H113.406V163.463ZM114.433 163.463C115.38 163.463 116.281 163.863 117.191 165.05L120.365 162.616C118.853 160.643 116.857 159.463 114.433 159.463V163.463ZM117.134 164.972L147.549 208.896L150.837 206.618L120.422 162.694L117.134 164.972ZM151.193 207.757V165.097H147.193V207.757H151.193ZM151.193 165.097C151.193 164.607 151.339 164.279 151.634 163.983L148.806 161.155C147.732 162.228 147.193 163.586 147.193 165.097H151.193ZM151.686 163.93C151.994 163.598 152.307 163.463 152.748 163.463V159.463C151.188 159.463 149.815 160.066 148.755 161.208L151.686 163.93ZM152.748 163.463C153.189 163.463 153.502 163.598 153.811 163.93L156.742 161.208C155.681 160.066 154.308 159.463 152.748 159.463V163.463ZM153.915 164.035C154.248 164.343 154.382 164.656 154.382 165.097H158.382C158.382 163.537 157.779 162.164 156.637 161.103L153.915 164.035ZM154.382 165.097V212.26H158.382V165.097H154.382ZM154.382 212.26C154.382 213.12 154.09 213.812 153.425 214.444L156.18 217.344C157.621 215.975 158.382 214.244 158.382 212.26H154.382ZM153.388 214.48C152.764 215.103 152.063 215.395 151.168 215.395V219.395C153.118 219.395 154.839 218.686 156.216 217.308L153.388 214.48ZM151.168 215.395H150.22V219.395H151.168V215.395ZM150.22 215.395C149.681 215.395 149.198 215.28 148.745 215.053L146.956 218.631C147.977 219.142 149.074 219.395 150.22 219.395V215.395ZM148.842 215.106C148.324 214.809 147.931 214.46 147.633 214.062L144.433 216.462C145.083 217.328 145.901 218.032 146.858 218.578L148.842 215.106ZM147.678 214.124L117.105 169.963L113.816 172.239L144.389 216.4L147.678 214.124ZM113.46 171.101V213.84H117.46V171.101H113.46ZM113.46 213.84C113.46 214.281 113.326 214.594 112.993 214.902L115.715 217.834C116.857 216.773 117.46 215.4 117.46 213.84H113.46ZM112.94 214.954C112.644 215.25 112.316 215.395 111.826 215.395V219.395C113.337 219.395 114.695 218.856 115.768 217.782L112.94 214.954ZM187.171 214.235L186.174 215.969L186.182 215.974L186.191 215.978L187.171 214.235ZM177.375 204.202L175.613 205.148L175.618 205.157L177.375 204.202ZM177.533 174.656L179.277 175.635L179.277 175.635L177.533 174.656ZM187.408 164.623L186.428 162.88L186.418 162.885L187.408 164.623ZM212.135 162.569L211.513 164.47L211.522 164.473L212.135 162.569ZM221.062 166.756L219.997 168.448L220.08 168.501L220.168 168.545L221.062 166.756ZM222.168 167.862L220.453 168.891L220.453 168.891L222.168 167.862ZM221.694 171.891L220.28 170.477L220.249 170.508L220.22 170.54L221.694 171.891ZM217.665 172.444L216.642 174.162L216.705 174.2L216.771 174.233L217.665 172.444ZM210.239 169.126L210.81 167.209L210.81 167.209L210.239 169.126ZM191.358 170.548L192.287 172.319L192.287 172.319L191.358 170.548ZM183.774 177.974L182.032 176.991L182.027 177L183.774 177.974ZM183.616 200.568L181.839 201.485L181.848 201.503L181.857 201.52L183.616 200.568ZM191.042 208.231L190.026 209.953L190.042 209.963L190.059 209.973L191.042 208.231ZM216.401 207.52L217.356 209.277L218.401 208.71V207.52H216.401ZM216.401 193.221H218.401V191.221H216.401V193.221ZM201.075 192.273L199.661 193.687L201.075 192.273ZM201.075 187.691L199.661 186.277L201.075 187.691ZM221.852 211.47L220.173 210.383L220.164 210.397L220.156 210.41L221.852 211.47ZM219.719 213.366L218.868 211.556L218.846 211.566L218.825 211.577L219.719 213.366ZM201.628 215.79C196.504 215.79 192.03 214.674 188.152 212.492L186.191 215.978C190.738 218.536 195.903 219.79 201.628 219.79V215.79ZM188.168 212.501C184.275 210.263 181.273 207.188 179.133 203.247L175.618 205.157C178.112 209.748 181.641 213.362 186.174 215.969L188.168 212.501ZM179.137 203.256C176.994 199.261 175.899 194.695 175.899 189.508H171.899C171.899 195.276 173.122 200.505 175.613 205.148L179.137 203.256ZM175.899 189.508C175.899 184.224 177.043 179.618 179.277 175.635L175.789 173.677C173.178 178.332 171.899 183.627 171.899 189.508H175.899ZM179.277 175.635C181.529 171.621 184.564 168.545 188.398 166.361L186.418 162.885C181.931 165.441 178.383 169.053 175.789 173.677L179.277 175.635ZM188.389 166.366C192.285 164.174 196.606 163.068 201.391 163.068V159.068C195.959 159.068 190.957 160.332 186.428 162.88L188.389 166.366ZM201.391 163.068C205.343 163.068 208.706 163.55 211.513 164.47L212.758 160.668C209.455 159.587 205.655 159.068 201.391 159.068V163.068ZM211.522 164.473C214.466 165.421 217.29 166.744 219.997 168.448L222.128 165.064C219.147 163.186 216.019 161.719 212.748 160.665L211.522 164.473ZM220.168 168.545C220.168 168.545 220.174 168.548 220.186 168.556C220.197 168.565 220.216 168.58 220.24 168.605C220.291 168.655 220.365 168.744 220.453 168.891L223.883 166.833C223.43 166.078 222.807 165.392 221.957 164.967L220.168 168.545ZM220.453 168.891C220.577 169.098 220.642 169.319 220.642 169.6H224.642C224.642 168.617 224.391 167.68 223.883 166.833L220.453 168.891ZM220.642 169.6C220.642 169.966 220.536 170.221 220.28 170.477L223.108 173.305C224.116 172.297 224.642 171.025 224.642 169.6H220.642ZM220.22 170.54C220.084 170.688 219.867 170.839 219.324 170.839V174.839C220.783 174.839 222.146 174.358 223.168 173.242L220.22 170.54ZM219.324 170.839C219.061 170.839 218.813 170.782 218.56 170.655L216.771 174.233C217.57 174.633 218.429 174.839 219.324 174.839V170.839ZM218.689 170.726C216.087 169.176 213.461 167.999 210.81 167.209L209.668 171.043C211.968 171.728 214.292 172.763 216.642 174.162L218.689 170.726ZM210.81 167.209C208.129 166.41 205.248 166.02 202.181 166.02V170.02C204.908 170.02 207.399 170.367 209.668 171.043L210.81 167.209ZM202.181 166.02C197.889 166.02 193.957 166.926 190.429 168.777L192.287 172.319C195.185 170.799 198.468 170.02 202.181 170.02V166.02ZM190.429 168.777C186.863 170.647 184.058 173.402 182.032 176.991L185.516 178.957C187.176 176.015 189.428 173.819 192.287 172.319L190.429 168.777ZM182.027 177C180.038 180.569 179.088 184.764 179.088 189.508H183.088C183.088 185.299 183.929 181.804 185.521 178.948L182.027 177ZM179.088 189.508C179.088 193.897 179.991 197.904 181.839 201.485L185.393 199.651C183.871 196.701 183.088 193.335 183.088 189.508H179.088ZM181.857 201.52C183.772 205.059 186.507 207.877 190.026 209.953L192.059 206.509C189.152 204.793 186.936 202.502 185.375 199.616L181.857 201.52ZM190.059 209.973C193.674 212.014 197.87 212.996 202.576 212.996V208.996C198.434 208.996 194.941 208.135 192.025 206.489L190.059 209.973ZM202.576 212.996C207.853 212.996 212.791 211.757 217.356 209.277L215.446 205.763C211.479 207.917 207.2 208.996 202.576 208.996V212.996ZM218.401 207.52V193.221H214.401V207.52H218.401ZM216.401 191.221H203.366V195.221H216.401V191.221ZM203.366 191.221C203 191.221 202.746 191.115 202.489 190.859L199.661 193.687C200.669 194.695 201.941 195.221 203.366 195.221V191.221ZM202.489 190.859C202.233 190.603 202.127 190.348 202.127 189.982H198.127C198.127 191.407 198.653 192.679 199.661 193.687L202.489 190.859ZM202.127 189.982C202.127 189.616 202.233 189.361 202.489 189.105L199.661 186.277C198.653 187.285 198.127 188.557 198.127 189.982H202.127ZM202.489 189.105C202.746 188.849 203 188.743 203.366 188.743V184.743C201.941 184.743 200.669 185.269 199.661 186.277L202.489 189.105ZM203.366 188.743H218.929V184.743H203.366V188.743ZM218.929 188.743C219.458 188.743 219.843 188.905 220.201 189.263L223.029 186.435C221.913 185.318 220.507 184.743 218.929 184.743V188.743ZM220.201 189.263C220.559 189.621 220.721 190.006 220.721 190.535H224.721C224.721 188.957 224.146 187.551 223.029 186.435L220.201 189.263ZM220.721 190.535V208.468H224.721V190.535H220.721ZM220.721 208.468C220.721 209.204 220.535 209.824 220.173 210.383L223.531 212.557C224.328 211.325 224.721 209.944 224.721 208.468H220.721ZM220.156 210.41C219.832 210.928 219.414 211.299 218.868 211.556L220.571 215.176C221.815 214.59 222.819 213.697 223.548 212.53L220.156 210.41ZM218.825 211.577C213.184 214.398 207.458 215.79 201.628 215.79V219.79C208.122 219.79 214.457 218.233 220.614 215.155L218.825 211.577Z" fill="white"/>
</g>
<mask id="mask1_0_25" style="mask-type:alpha" maskUnits="userSpaceOnUse" x="0" y="0" width="272" height="308">
<path d="M250 308H22C9.84974 308 0 298.15 0 286V22C0 9.84974 9.84974 0 22 0H170L272 102V286C272 298.15 262.15 308 250 308Z" fill="url(#paint2_linear_0_25)"/>
</mask>
<g mask="url(#mask1_0_25)">
<ellipse opacity="0.03" cx="-14.5" cy="-12.5" rx="223.5" ry="214.5" fill="url(#paint3_linear_0_25)"/>
<ellipse opacity="0.03" cx="-14.5" cy="-12.5" rx="140.5" ry="134.5" fill="url(#paint4_linear_0_25)"/>
</g>
<g filter="url(#filter2_d_0_25)">
<path d="M272 102H192C179.85 102 170 92.1503 170 80V0L272 102Z" fill="url(#paint5_linear_0_25)"/>
</g>
</g>
<defs>
<filter id="filter0_f_0_25" x="9" y="110" width="256" height="162" filterUnits="userSpaceOnUse" color-interpolation-filters="sRGB">
<feFlood flood-opacity="0" result="BackgroundImageFix"/>
<feBlend mode="normal" in="SourceGraphic" in2="BackgroundImageFix" result="shape"/>
<feGaussianBlur stdDeviation="19.5" result="effect1_foregroundBlur_0_25"/>
</filter>
<filter id="filter1_d_0_25" x="45.6631" y="161.068" width="181.058" height="64.722" filterUnits="userSpaceOnUse" color-interpolation-filters="sRGB">
<feFlood flood-opacity="0" result="BackgroundImageFix"/>
<feColorMatrix in="SourceAlpha" type="matrix" values="0 0 0 0 0 0 0 0 0 0 0 0 0 0 0 0 0 0 127 0" result="hardAlpha"/>
<feOffset dy="4"/>
<feGaussianBlur stdDeviation="2"/>
<feComposite in2="hardAlpha" operator="out"/>
<feColorMatrix type="matrix" values="0 0 0 0 0 0 0 0 0 0 0 0 0 0 0 0 0 0 0.25 0"/>
<feBlend mode="normal" in2="BackgroundImageFix" result="effect1_dropShadow_0_25"/>
<feBlend mode="normal" in="SourceGraphic" in2="effect1_dropShadow_0_25" result="shape"/>
</filter>
<filter id="filter2_d_0_25" x="147" y="-24" width="152" height="152" filterUnits="userSpaceOnUse" color-interpolation-filters="sRGB">
<feFlood flood-opacity="0" result="BackgroundImageFix"/>
<feColorMatrix in="SourceAlpha" type="matrix" values="0 0 0 0 0 0 0 0 0 0 0 0 0 0 0 0 0 0 127 0" result="hardAlpha"/>
<feOffset dx="2" dy="1"/>
<feGaussianBlur stdDeviation="12.5"/>
<feColorMatrix type="matrix" values="0 0 0 0 0 0 0 0 0 0 0 0 0 0 0 0 0 0 0.33 0"/>
<feBlend mode="normal" in2="BackgroundImageFix" result="effect1_dropShadow_0_25"/>
<feBlend mode="normal" in="SourceGraphic" in2="effect1_dropShadow_0_25" result="shape"/>
</filter>
<linearGradient id="paint0_linear_0_25" x1="136" y1="0" x2="136" y2="308" gradientUnits="userSpaceOnUse">
<stop stop-color="#FF7979"/>
<stop offset="1" stop-color="#E85555"/>
</linearGradient>
<linearGradient id="paint1_linear_0_25" x1="136" y1="0" x2="136" y2="308" gradientUnits="userSpaceOnUse">
<stop stop-color="#9391FC"/>
<stop offset="1" stop-color="#5B59EF"/>
</linearGradient>
<linearGradient id="paint2_linear_0_25" x1="136" y1="0" x2="136" y2="308" gradientUnits="userSpaceOnUse">
<stop stop-color="#9391FC"/>
<stop offset="1" stop-color="#5B59EF"/>
</linearGradient>
<linearGradient id="paint3_linear_0_25" x1="1.72772" y1="-5.12887" x2="69.5069" y2="174.758" gradientUnits="userSpaceOnUse">
<stop stop-color="white" stop-opacity="0"/>
<stop offset="1" stop-color="white"/>
</linearGradient>
<linearGradient id="paint4_linear_0_25" x1="-4.29868" y1="-7.87801" x2="38.1204" y2="104.989" gradientUnits="userSpaceOnUse">
<stop stop-color="white" stop-opacity="0"/>
<stop offset="1" stop-color="white"/>
</linearGradient>
<linearGradient id="paint5_linear_0_25" x1="221" y1="0" x2="221" y2="102" gradientUnits="userSpaceOnUse">
<stop stop-color="#7371F1"/>
<stop offset="1" stop-color="#504DE8"/>
</linearGradient>
</defs>
</svg>
