<svg width="272" height="308" viewBox="0 0 272 308" fill="none" xmlns="http://www.w3.org/2000/svg">
<mask id="mask0_2_17" style="mask-type:alpha" maskUnits="userSpaceOnUse" x="0" y="0" width="272" height="308">
<path d="M250 308H22C9.84974 308 0 298.15 0 286V22C0 9.84974 9.84974 0 22 0H170L272 102V286C272 298.15 262.15 308 250 308Z" fill="url(#paint0_linear_2_17)"/>
</mask>
<g mask="url(#mask0_2_17)">
<path d="M250 308H22C9.84974 308 0 298.15 0 286V22C0 9.84974 9.84974 0 22 0H170L272 102V286C272 298.15 262.15 308 250 308Z" fill="url(#paint1_linear_2_17)"/>
<g filter="url(#filter0_f_2_17)">
<rect x="47" y="144" width="178" height="84" fill="#0F7D56" fill-opacity="0.33" style="mix-blend-mode:darken"/>
</g>
<path d="M69.3235 217.395C68.3229 217.395 67.4802 217.053 66.7955 216.368C66.1109 215.683 65.7685 214.841 65.7685 213.84V168.573H49.6525C48.7045 168.573 47.9145 168.257 47.2825 167.625C46.6505 166.993 46.3345 166.203 46.3345 165.255C46.3345 164.307 46.6505 163.517 47.2825 162.885C47.9145 162.2 48.7045 161.858 49.6525 161.858H88.9945C89.9425 161.858 90.7325 162.2 91.3645 162.885C92.0492 163.517 92.3915 164.307 92.3915 165.255C92.3915 166.203 92.0492 166.993 91.3645 167.625C90.7325 168.257 89.9425 168.573 88.9945 168.573H72.9575V213.84C72.9575 214.841 72.5889 215.683 71.8515 216.368C71.1669 217.053 70.3242 217.395 69.3235 217.395ZM110.196 217.395C109.195 217.395 108.353 217.053 107.668 216.368C106.983 215.683 106.641 214.841 106.641 213.84V165.097C106.641 164.096 106.983 163.254 107.668 162.569C108.353 161.832 109.195 161.463 110.196 161.463C111.197 161.463 112.039 161.832 112.724 162.569C113.461 163.254 113.83 164.096 113.83 165.097V213.84C113.83 214.841 113.461 215.683 112.724 216.368C112.039 217.053 111.197 217.395 110.196 217.395ZM138.254 217.395C137.253 217.395 136.41 217.053 135.726 216.368C135.041 215.683 134.699 214.841 134.699 213.84V165.492C134.699 164.491 135.041 163.649 135.726 162.964C136.41 162.227 137.253 161.858 138.254 161.858H168.985C169.933 161.858 170.723 162.2 171.355 162.885C172.039 163.517 172.382 164.307 172.382 165.255C172.382 166.203 172.039 166.993 171.355 167.625C170.723 168.257 169.933 168.573 168.985 168.573H141.888V186.032H166.22C167.168 186.032 167.958 186.374 168.59 187.059C169.274 187.691 169.617 188.481 169.617 189.429C169.617 190.377 169.274 191.167 168.59 191.799C167.958 192.431 167.168 192.747 166.22 192.747H141.888V213.84C141.888 214.841 141.519 215.683 140.782 216.368C140.097 217.053 139.254 217.395 138.254 217.395ZM191.847 217.395C190.846 217.395 190.004 217.053 189.319 216.368C188.634 215.683 188.292 214.841 188.292 213.84V165.492C188.292 164.491 188.634 163.649 189.319 162.964C190.004 162.227 190.846 161.858 191.847 161.858H222.578C223.526 161.858 224.316 162.2 224.948 162.885C225.633 163.517 225.975 164.307 225.975 165.255C225.975 166.203 225.633 166.993 224.948 167.625C224.316 168.257 223.526 168.573 222.578 168.573H195.481V186.032H219.813C220.761 186.032 221.551 186.374 222.183 187.059C222.868 187.691 223.21 188.481 223.21 189.429C223.21 190.377 222.868 191.167 222.183 191.799C221.551 192.431 220.761 192.747 219.813 192.747H195.481V213.84C195.481 214.841 195.112 215.683 194.375 216.368C193.69 217.053 192.848 217.395 191.847 217.395Z" fill="white"/>
<path d="M66.7955 216.368L65.3813 217.782L66.7955 216.368ZM65.7685 168.573H67.7685V166.573H65.7685V168.573ZM47.2825 167.625L45.8683 169.039L45.8683 169.039L47.2825 167.625ZM47.2825 162.885L48.6968 164.299L48.725 164.271L48.7521 164.242L47.2825 162.885ZM91.3645 162.885L89.8949 164.242L89.9492 164.3L90.008 164.355L91.3645 162.885ZM91.3645 167.625L90.008 166.155L89.9786 166.183L89.9503 166.211L91.3645 167.625ZM72.9575 168.573V166.573H70.9575V168.573H72.9575ZM71.8515 216.368L70.4906 214.902L70.4635 214.928L70.4373 214.954L71.8515 216.368ZM69.3235 215.395C68.8335 215.395 68.5056 215.25 68.2098 214.954L65.3813 217.782C66.4549 218.856 67.8123 219.395 69.3235 219.395V215.395ZM68.2098 214.954C67.914 214.658 67.7685 214.33 67.7685 213.84H63.7685C63.7685 215.351 64.3078 216.709 65.3813 217.782L68.2098 214.954ZM67.7685 213.84V168.573H63.7685V213.84H67.7685ZM65.7685 166.573H49.6525V170.573H65.7685V166.573ZM49.6525 166.573C49.1993 166.573 48.9292 166.443 48.6968 166.211L45.8683 169.039C46.8999 170.071 48.2098 170.573 49.6525 170.573V166.573ZM48.6968 166.211C48.4643 165.978 48.3345 165.708 48.3345 165.255H44.3345C44.3345 166.698 44.8367 168.008 45.8683 169.039L48.6968 166.211ZM48.3345 165.255C48.3345 164.802 48.4643 164.532 48.6968 164.299L45.8683 161.471C44.8367 162.502 44.3345 163.812 44.3345 165.255H48.3345ZM48.7521 164.242C48.9981 163.975 49.2517 163.858 49.6525 163.858V159.858C48.1574 159.858 46.831 160.426 45.8129 161.528L48.7521 164.242ZM49.6525 163.858H88.9945V159.858H49.6525V163.858ZM88.9945 163.858C89.3954 163.858 89.649 163.975 89.8949 164.242L92.8341 161.528C91.8161 160.426 90.4897 159.858 88.9945 159.858V163.858ZM90.008 164.355C90.2744 164.601 90.3915 164.854 90.3915 165.255H94.3915C94.3915 163.76 93.824 162.433 92.7211 161.415L90.008 164.355ZM90.3915 165.255C90.3915 165.656 90.2744 165.909 90.008 166.155L92.7211 169.095C93.824 168.077 94.3915 166.75 94.3915 165.255H90.3915ZM89.9503 166.211C89.7179 166.443 89.4478 166.573 88.9945 166.573V170.573C90.4373 170.573 91.7472 170.071 92.7788 169.039L89.9503 166.211ZM88.9945 166.573H72.9575V170.573H88.9945V166.573ZM70.9575 168.573V213.84H74.9575V168.573H70.9575ZM70.9575 213.84C70.9575 214.281 70.823 214.594 70.4906 214.902L73.2124 217.834C74.3547 216.773 74.9575 215.4 74.9575 213.84H70.9575ZM70.4373 214.954C70.1415 215.25 69.8136 215.395 69.3235 215.395V219.395C70.8348 219.395 72.1922 218.856 73.2658 217.782L70.4373 214.954ZM107.668 216.368L109.082 214.954L109.082 214.954L107.668 216.368ZM107.668 162.569L109.082 163.983L109.109 163.957L109.134 163.93L107.668 162.569ZM112.724 162.569L111.259 163.93L111.309 163.984L111.363 164.035L112.724 162.569ZM112.724 216.368L111.363 214.902L111.336 214.928L111.31 214.954L112.724 216.368ZM110.196 215.395C109.706 215.395 109.378 215.25 109.082 214.954L106.254 217.782C107.327 218.856 108.685 219.395 110.196 219.395V215.395ZM109.082 214.954C108.787 214.658 108.641 214.33 108.641 213.84H104.641C104.641 215.351 105.18 216.709 106.254 217.782L109.082 214.954ZM108.641 213.84V165.097H104.641V213.84H108.641ZM108.641 165.097C108.641 164.607 108.787 164.279 109.082 163.983L106.254 161.155C105.18 162.228 104.641 163.586 104.641 165.097H108.641ZM109.134 163.93C109.442 163.598 109.755 163.463 110.196 163.463V159.463C108.636 159.463 107.263 160.066 106.203 161.208L109.134 163.93ZM110.196 163.463C110.637 163.463 110.95 163.598 111.259 163.93L114.19 161.208C113.129 160.066 111.756 159.463 110.196 159.463V163.463ZM111.363 164.035C111.696 164.343 111.83 164.656 111.83 165.097H115.83C115.83 163.537 115.227 162.164 114.085 161.103L111.363 164.035ZM111.83 165.097V213.84H115.83V165.097H111.83ZM111.83 213.84C111.83 214.281 111.696 214.594 111.363 214.902L114.085 217.834C115.227 216.773 115.83 215.4 115.83 213.84H111.83ZM111.31 214.954C111.014 215.25 110.686 215.395 110.196 215.395V219.395C111.707 219.395 113.065 218.856 114.138 217.782L111.31 214.954ZM135.726 216.368L137.14 214.954L137.14 214.954L135.726 216.368ZM135.726 162.964L137.14 164.378L137.166 164.352L137.191 164.325L135.726 162.964ZM171.355 162.885L169.885 164.242L169.939 164.3L169.998 164.355L171.355 162.885ZM171.355 167.625L169.998 166.155L169.969 166.183L169.94 166.211L171.355 167.625ZM141.888 168.573V166.573H139.888V168.573H141.888ZM141.888 186.032H139.888V188.032H141.888V186.032ZM168.59 187.059L167.12 188.416L167.174 188.474L167.233 188.529L168.59 187.059ZM168.59 191.799L167.233 190.329L167.204 190.357L167.175 190.385L168.59 191.799ZM141.888 192.747V190.747H139.888V192.747H141.888ZM140.782 216.368L139.421 214.902L139.393 214.928L139.367 214.954L140.782 216.368ZM138.254 215.395C137.763 215.395 137.436 215.25 137.14 214.954L134.311 217.782C135.385 218.856 136.742 219.395 138.254 219.395V215.395ZM137.14 214.954C136.844 214.658 136.699 214.33 136.699 213.84H132.699C132.699 215.351 133.238 216.709 134.311 217.782L137.14 214.954ZM136.699 213.84V165.492H132.699V213.84H136.699ZM136.699 165.492C136.699 165.002 136.844 164.674 137.14 164.378L134.311 161.55C133.238 162.623 132.699 163.981 132.699 165.492H136.699ZM137.191 164.325C137.5 163.993 137.812 163.858 138.254 163.858V159.858C136.693 159.858 135.321 160.461 134.26 161.603L137.191 164.325ZM138.254 163.858H168.985V159.858H138.254V163.858ZM168.985 163.858C169.385 163.858 169.639 163.975 169.885 164.242L172.824 161.528C171.806 160.426 170.48 159.858 168.985 159.858V163.858ZM169.998 164.355C170.264 164.601 170.382 164.854 170.382 165.255H174.382C174.382 163.76 173.814 162.433 172.711 161.415L169.998 164.355ZM170.382 165.255C170.382 165.656 170.264 165.909 169.998 166.155L172.711 169.095C173.814 168.077 174.382 166.75 174.382 165.255H170.382ZM169.94 166.211C169.708 166.443 169.438 166.573 168.985 166.573V170.573C170.427 170.573 171.737 170.071 172.769 169.039L169.94 166.211ZM168.985 166.573H141.888V170.573H168.985V166.573ZM139.888 168.573V186.032H143.888V168.573H139.888ZM141.888 188.032H166.22V184.032H141.888V188.032ZM166.22 188.032C166.62 188.032 166.874 188.149 167.12 188.416L170.059 185.702C169.041 184.6 167.715 184.032 166.22 184.032V188.032ZM167.233 188.529C167.499 188.775 167.617 189.028 167.617 189.429H171.617C171.617 187.934 171.049 186.607 169.946 185.589L167.233 188.529ZM167.617 189.429C167.617 189.83 167.499 190.083 167.233 190.329L169.946 193.269C171.049 192.251 171.617 190.924 171.617 189.429H167.617ZM167.175 190.385C166.943 190.617 166.673 190.747 166.22 190.747V194.747C167.662 194.747 168.972 194.245 170.004 193.213L167.175 190.385ZM166.22 190.747H141.888V194.747H166.22V190.747ZM139.888 192.747V213.84H143.888V192.747H139.888ZM139.888 213.84C139.888 214.281 139.753 214.594 139.421 214.902L142.142 217.834C143.285 216.773 143.888 215.4 143.888 213.84H139.888ZM139.367 214.954C139.071 215.25 138.744 215.395 138.254 215.395V219.395C139.765 219.395 141.122 218.856 142.196 217.782L139.367 214.954ZM189.319 216.368L190.733 214.954L190.733 214.954L189.319 216.368ZM189.319 162.964L190.733 164.378L190.759 164.352L190.785 164.325L189.319 162.964ZM224.948 162.885L223.478 164.242L223.533 164.3L223.591 164.355L224.948 162.885ZM224.948 167.625L223.591 166.155L223.562 166.183L223.534 166.211L224.948 167.625ZM195.481 168.573V166.573H193.481V168.573H195.481ZM195.481 186.032H193.481V188.032H195.481V186.032ZM222.183 187.059L220.713 188.416L220.768 188.474L220.826 188.529L222.183 187.059ZM222.183 191.799L220.826 190.329L220.797 190.357L220.769 190.385L222.183 191.799ZM195.481 192.747V190.747H193.481V192.747H195.481ZM194.375 216.368L193.014 214.902L192.987 214.928L192.961 214.954L194.375 216.368ZM191.847 215.395C191.357 215.395 191.029 215.25 190.733 214.954L187.905 217.782C188.978 218.856 190.336 219.395 191.847 219.395V215.395ZM190.733 214.954C190.437 214.658 190.292 214.33 190.292 213.84H186.292C186.292 215.351 186.831 216.709 187.905 217.782L190.733 214.954ZM190.292 213.84V165.492H186.292V213.84H190.292ZM190.292 165.492C190.292 165.002 190.437 164.674 190.733 164.378L187.905 161.55C186.831 162.623 186.292 163.981 186.292 165.492H190.292ZM190.785 164.325C191.093 163.993 191.406 163.858 191.847 163.858V159.858C190.287 159.858 188.914 160.461 187.853 161.603L190.785 164.325ZM191.847 163.858H222.578V159.858H191.847V163.858ZM222.578 163.858C222.979 163.858 223.232 163.975 223.478 164.242L226.418 161.528C225.4 160.426 224.073 159.858 222.578 159.858V163.858ZM223.591 164.355C223.858 164.601 223.975 164.854 223.975 165.255H227.975C227.975 163.76 227.407 162.433 226.305 161.415L223.591 164.355ZM223.975 165.255C223.975 165.656 223.858 165.909 223.591 166.155L226.305 169.095C227.407 168.077 227.975 166.75 227.975 165.255H223.975ZM223.534 166.211C223.301 166.443 223.031 166.573 222.578 166.573V170.573C224.021 170.573 225.331 170.071 226.362 169.039L223.534 166.211ZM222.578 166.573H195.481V170.573H222.578V166.573ZM193.481 168.573V186.032H197.481V168.573H193.481ZM195.481 188.032H219.813V184.032H195.481V188.032ZM219.813 188.032C220.214 188.032 220.467 188.149 220.713 188.416L223.653 185.702C222.635 184.6 221.308 184.032 219.813 184.032V188.032ZM220.826 188.529C221.093 188.775 221.21 189.028 221.21 189.429H225.21C225.21 187.934 224.642 186.607 223.54 185.589L220.826 188.529ZM221.21 189.429C221.21 189.83 221.093 190.083 220.826 190.329L223.54 193.269C224.642 192.251 225.21 190.924 225.21 189.429H221.21ZM220.769 190.385C220.536 190.617 220.266 190.747 219.813 190.747V194.747C221.256 194.747 222.566 194.245 223.597 193.213L220.769 190.385ZM219.813 190.747H195.481V194.747H219.813V190.747ZM193.481 192.747V213.84H197.481V192.747H193.481ZM193.481 213.84C193.481 214.281 193.346 214.594 193.014 214.902L195.736 217.834C196.878 216.773 197.481 215.4 197.481 213.84H193.481ZM192.961 214.954C192.665 215.25 192.337 215.395 191.847 215.395V219.395C193.358 219.395 194.716 218.856 195.789 217.782L192.961 214.954Z" fill="white"/>
<mask id="mask1_2_17" style="mask-type:alpha" maskUnits="userSpaceOnUse" x="0" y="0" width="272" height="308">
<path d="M250 308H22C9.84974 308 0 298.15 0 286V22C0 9.84974 9.84974 0 22 0H170L272 102V286C272 298.15 262.15 308 250 308Z" fill="url(#paint2_linear_2_17)"/>
</mask>
<g mask="url(#mask1_2_17)">
<ellipse opacity="0.05" cx="-4.5" cy="-10.5" rx="223.5" ry="214.5" fill="url(#paint3_linear_2_17)"/>
<ellipse opacity="0.05" cx="-4.5" cy="-10.5" rx="140.5" ry="134.5" fill="url(#paint4_linear_2_17)"/>
</g>
<mask id="mask2_2_17" style="mask-type:alpha" maskUnits="userSpaceOnUse" x="0" y="0" width="272" height="308">
<path d="M250 308H22C9.84974 308 0 298.15 0 286V22C0 9.84974 9.84974 0 22 0H170L272 102V286C272 298.15 262.15 308 250 308Z" fill="url(#paint5_linear_2_17)"/>
</mask>
<g mask="url(#mask2_2_17)">
</g>
<g filter="url(#filter1_d_2_17)">
<path d="M272 102H192C179.85 102 170 92.1503 170 80V0L272 102Z" fill="url(#paint6_linear_2_17)"/>
</g>
<path opacity="0.12" fill-rule="evenodd" clip-rule="evenodd" d="M199 126H73V114H199V126ZM199 156H73V144H199V156ZM73 186H199V174H73V186ZM199 216H73V204H199V216ZM73 246H199V234H73V246Z" fill="white"/>
</g>
<defs>
<filter id="filter0_f_2_17" x="8" y="105" width="256" height="162" filterUnits="userSpaceOnUse" color-interpolation-filters="sRGB">
<feFlood flood-opacity="0" result="BackgroundImageFix"/>
<feBlend mode="normal" in="SourceGraphic" in2="BackgroundImageFix" result="shape"/>
<feGaussianBlur stdDeviation="19.5" result="effect1_foregroundBlur_2_17"/>
</filter>
<filter id="filter1_d_2_17" x="147" y="-24" width="152" height="152" filterUnits="userSpaceOnUse" color-interpolation-filters="sRGB">
<feFlood flood-opacity="0" result="BackgroundImageFix"/>
<feColorMatrix in="SourceAlpha" type="matrix" values="0 0 0 0 0 0 0 0 0 0 0 0 0 0 0 0 0 0 127 0" result="hardAlpha"/>
<feOffset dx="2" dy="1"/>
<feGaussianBlur stdDeviation="12.5"/>
<feColorMatrix type="matrix" values="0 0 0 0 0 0 0 0 0 0 0 0 0 0 0 0 0 0 0.33 0"/>
<feBlend mode="normal" in2="BackgroundImageFix" result="effect1_dropShadow_2_17"/>
<feBlend mode="normal" in="SourceGraphic" in2="effect1_dropShadow_2_17" result="shape"/>
</filter>
<linearGradient id="paint0_linear_2_17" x1="136" y1="0" x2="136" y2="308" gradientUnits="userSpaceOnUse">
<stop stop-color="#FF7979"/>
<stop offset="1" stop-color="#E85555"/>
</linearGradient>
<linearGradient id="paint1_linear_2_17" x1="136" y1="0" x2="136" y2="308" gradientUnits="userSpaceOnUse">
<stop stop-color="#2EBC89"/>
<stop offset="1" stop-color="#1DA473"/>
</linearGradient>
<linearGradient id="paint2_linear_2_17" x1="136" y1="0" x2="136" y2="308" gradientUnits="userSpaceOnUse">
<stop stop-color="#2EBC89"/>
<stop offset="1" stop-color="#1DA473"/>
</linearGradient>
<linearGradient id="paint3_linear_2_17" x1="11.7277" y1="-3.12887" x2="79.5069" y2="176.758" gradientUnits="userSpaceOnUse">
<stop stop-color="white" stop-opacity="0"/>
<stop offset="1" stop-color="white"/>
</linearGradient>
<linearGradient id="paint4_linear_2_17" x1="5.70132" y1="-5.87801" x2="48.1204" y2="106.989" gradientUnits="userSpaceOnUse">
<stop stop-color="white" stop-opacity="0"/>
<stop offset="1" stop-color="white"/>
</linearGradient>
<linearGradient id="paint5_linear_2_17" x1="136" y1="0" x2="136" y2="308" gradientUnits="userSpaceOnUse">
<stop stop-color="#2EBC89"/>
<stop offset="1" stop-color="#1DA473"/>
</linearGradient>
<linearGradient id="paint6_linear_2_17" x1="221" y1="0" x2="221" y2="102" gradientUnits="userSpaceOnUse">
<stop stop-color="#23A476"/>
<stop offset="1" stop-color="#11835A"/>
</linearGradient>
</defs>
</svg>
