<svg width="40" height="40" viewBox="0 0 40 40" fill="none" xmlns="http://www.w3.org/2000/svg">
<path d="M36.6668 23.3334L31.7685 19.8066C29.2232 17.9739 25.7446 18.1633 23.4134 20.2615L16.587 26.4052C14.2557 28.5034 10.7772 28.6928 8.23184 26.8602L3.3335 23.3334M10.0002 36.6667H30.0002C33.6821 36.6667 36.6668 33.6819 36.6668 30V10C36.6668 6.31814 33.6821 3.33337 30.0002 3.33337H10.0002C6.31826 3.33337 3.3335 6.31814 3.3335 10V30C3.3335 33.6819 6.31826 36.6667 10.0002 36.6667ZM18.3335 14.1667C18.3335 16.4679 16.468 18.3334 14.1668 18.3334C11.8656 18.3334 10.0002 16.4679 10.0002 14.1667C10.0002 11.8655 11.8656 10 14.1668 10C16.468 10 18.3335 11.8655 18.3335 14.1667Z" stroke="#5D38B1" stroke-width="1.5" stroke-linecap="round"/>
</svg>
