<svg width="272" height="308" viewBox="0 0 272 308" fill="none" xmlns="http://www.w3.org/2000/svg">
<mask id="mask0_0_55" style="mask-type:alpha" maskUnits="userSpaceOnUse" x="0" y="0" width="272" height="308">
<path d="M250 308H22C9.84974 308 0 298.15 0 286V22C0 9.84974 9.84974 0 22 0H170L272 102V286C272 298.15 262.15 308 250 308Z" fill="url(#paint0_linear_0_55)"/>
</mask>
<g mask="url(#mask0_0_55)">
<path d="M250 308H22C9.84974 308 0 298.15 0 286V22C0 9.84974 9.84974 0 22 0H170L272 102V286C272 298.15 262.15 308 250 308Z" fill="url(#paint1_linear_0_55)"/>
<g opacity="0.26" filter="url(#filter0_f_0_55)">
<rect x="48" y="149" width="178" height="84" fill="#E66000" style="mix-blend-mode:darken"/>
</g>
<path opacity="0.11" d="M203.912 225.484V154.516C207.984 153.097 211.629 150.668 214.505 147.456C217.382 144.244 219.395 140.354 220.358 136.151C221.32 131.947 221.199 127.569 220.007 123.425C218.815 119.281 216.59 115.508 213.541 112.459C210.492 109.41 206.719 107.185 202.575 105.993C198.431 104.801 194.053 104.68 189.849 105.642C185.646 106.605 181.756 108.618 178.544 111.495C175.332 114.371 172.903 118.016 171.484 122.088H100.516C99.0974 118.016 96.6682 114.371 93.4559 111.495C90.2437 108.618 86.3537 106.605 82.1506 105.642C77.9475 104.68 73.5688 104.801 69.425 105.993C65.2813 107.185 61.5081 109.41 58.4591 112.459C55.4101 115.508 53.1852 119.281 51.9929 123.425C50.8007 127.569 50.68 131.947 51.6423 136.151C52.6047 140.354 54.6184 144.244 57.4949 147.456C60.3714 150.668 64.0163 153.097 68.0882 154.516V225.484C64.0163 226.903 60.3714 229.332 57.4949 232.544C54.6184 235.756 52.6047 239.646 51.6423 243.849C50.68 248.053 50.8007 252.431 51.9929 256.575C53.1852 260.719 55.4101 264.492 58.4591 267.541C61.5081 270.59 65.2813 272.815 69.425 274.007C73.5688 275.199 77.9475 275.32 82.1506 274.358C86.3537 273.395 90.2437 271.382 93.4559 268.505C96.6682 265.629 99.0974 261.984 100.516 257.912H171.484C172.903 261.984 175.332 265.629 178.544 268.505C181.756 271.382 185.646 273.395 189.849 274.358C194.053 275.32 198.431 275.199 202.575 274.007C206.719 272.815 210.492 270.59 213.541 267.541C216.59 264.492 218.815 260.719 220.007 256.575C221.199 252.431 221.32 248.053 220.358 243.849C219.395 239.646 217.382 235.756 214.505 232.544C211.629 229.332 207.984 226.903 203.912 225.484ZM195.423 122.088C197.102 122.088 198.743 122.586 200.139 123.519C201.535 124.452 202.623 125.777 203.266 127.329C203.908 128.88 204.076 130.587 203.749 132.233C203.421 133.88 202.613 135.393 201.425 136.58C200.238 137.767 198.726 138.575 197.079 138.903C195.432 139.231 193.725 139.062 192.174 138.42C190.623 137.777 189.297 136.689 188.365 135.293C187.432 133.897 186.934 132.256 186.934 130.577C186.934 128.326 187.828 126.167 189.42 124.575C191.012 122.983 193.171 122.088 195.423 122.088ZM76.5772 122.088C78.2561 122.088 79.8974 122.586 81.2934 123.519C82.6894 124.452 83.7774 125.777 84.4199 127.329C85.0625 128.88 85.2306 130.587 84.903 132.233C84.5755 133.88 83.767 135.393 82.5798 136.58C81.3926 137.767 79.88 138.575 78.2333 138.903C76.5866 139.231 74.8797 139.062 73.3286 138.42C71.7774 137.777 70.4516 136.689 69.5188 135.293C68.586 133.897 68.0882 132.256 68.0882 130.577C68.0882 128.326 68.9826 126.167 70.5745 124.575C72.1665 122.983 74.3257 122.088 76.5772 122.088ZM76.5772 257.912C74.8982 257.912 73.2569 257.414 71.8609 256.481C70.4649 255.548 69.3769 254.223 68.7344 252.671C68.0919 251.12 67.9237 249.413 68.2513 247.767C68.5788 246.12 69.3873 244.607 70.5745 243.42C71.7617 242.233 73.2743 241.425 74.921 241.097C76.5677 240.769 78.2746 240.938 79.8257 241.58C81.3769 242.223 82.7027 243.311 83.6355 244.707C84.5683 246.103 85.0661 247.744 85.0661 249.423C85.0661 251.674 84.1718 253.833 82.5798 255.425C80.9878 257.017 78.8286 257.912 76.5772 257.912ZM171.484 240.934H100.516C99.2485 237.374 97.2045 234.14 94.5322 231.468C91.8599 228.796 88.6264 226.751 85.0661 225.484V154.516C88.6264 153.249 91.8599 151.204 94.5322 148.532C97.2045 145.86 99.2485 142.626 100.516 139.066H171.484C172.751 142.626 174.796 145.86 177.468 148.532C180.14 151.204 183.374 153.249 186.934 154.516V225.484C183.374 226.751 180.14 228.796 177.468 231.468C174.796 234.14 172.751 237.374 171.484 240.934ZM195.423 257.912C193.744 257.912 192.103 257.414 190.707 256.481C189.311 255.548 188.223 254.223 187.58 252.671C186.938 251.12 186.769 249.413 187.097 247.767C187.425 246.12 188.233 244.607 189.42 243.42C190.607 242.233 192.12 241.425 193.767 241.097C195.413 240.769 197.12 240.938 198.671 241.58C200.223 242.223 201.548 243.311 202.481 244.707C203.414 246.103 203.912 247.744 203.912 249.423C203.912 251.674 203.017 253.833 201.425 255.425C199.833 257.017 197.674 257.912 195.423 257.912Z" fill="white"/>
<path d="M31.759 217.395C30.7056 217.395 29.7576 217.105 28.915 216.526C28.125 215.894 27.5193 214.999 27.098 213.84L11.614 166.282C11.456 165.703 11.377 165.255 11.377 164.939C11.3243 163.938 11.614 163.122 12.246 162.49C12.9306 161.805 13.7996 161.463 14.853 161.463C15.6956 161.463 16.433 161.726 17.065 162.253C17.697 162.78 18.1446 163.464 18.408 164.307L31.68 207.915L45.031 164.465C45.2943 163.57 45.7946 162.859 46.532 162.332C47.322 161.753 48.191 161.463 49.139 161.463C50.087 161.463 50.9296 161.753 51.667 162.332C52.457 162.859 52.9836 163.57 53.247 164.465L66.598 207.915L79.87 164.307C80.1333 163.464 80.581 162.78 81.213 162.253C81.845 161.726 82.5823 161.463 83.425 161.463C84.4783 161.463 85.321 161.805 85.953 162.49C86.6376 163.122 86.9536 163.938 86.901 164.939C86.901 165.255 86.822 165.703 86.664 166.282L71.18 213.84C70.7586 214.999 70.1266 215.894 69.284 216.526C68.494 217.105 67.5723 217.395 66.519 217.395C65.4656 217.395 64.4913 217.079 63.596 216.447C62.7533 215.762 62.174 214.893 61.858 213.84L49.139 173.55L36.42 213.84C36.104 214.893 35.4983 215.762 34.603 216.447C33.7603 217.079 32.8123 217.395 31.759 217.395ZM105.762 217C104.761 217 103.918 216.658 103.234 215.973C102.549 215.288 102.207 214.446 102.207 213.445V165.492C102.207 164.491 102.549 163.649 103.234 162.964C103.918 162.227 104.761 161.858 105.762 161.858H137.441C138.389 161.858 139.179 162.2 139.811 162.885C140.495 163.517 140.838 164.307 140.838 165.255C140.838 166.203 140.495 166.993 139.811 167.625C139.179 168.257 138.389 168.573 137.441 168.573H109.396V186.032H134.597C135.545 186.032 136.335 186.374 136.967 187.059C137.651 187.691 137.994 188.481 137.994 189.429C137.994 190.377 137.651 191.167 136.967 191.799C136.335 192.431 135.545 192.747 134.597 192.747H109.396V210.285H137.441C138.389 210.285 139.179 210.627 139.811 211.312C140.495 211.944 140.838 212.734 140.838 213.682C140.838 214.63 140.495 215.42 139.811 216.052C139.179 216.684 138.389 217 137.441 217H105.762ZM161.67 217C160.669 217 159.826 216.658 159.142 215.973C158.457 215.288 158.115 214.446 158.115 213.445V165.492C158.115 164.491 158.457 163.649 159.142 162.964C159.826 162.227 160.669 161.858 161.67 161.858H180.314C185.949 161.858 190.294 163.148 193.349 165.729C196.456 168.31 198.01 171.786 198.01 176.157C198.01 179.212 197.272 181.766 195.798 183.82C194.376 185.821 192.532 187.322 190.268 188.323C193.428 189.324 196.008 190.93 198.01 193.142C200.064 195.354 201.091 198.145 201.091 201.516C201.091 206.361 199.458 210.153 196.193 212.892C192.927 215.631 187.792 217 180.788 217H161.67ZM178.418 185.716C183.105 185.716 186.397 184.926 188.293 183.346C190.189 181.766 191.137 179.554 191.137 176.71C191.137 174.235 190.11 172.26 188.056 170.785C186.054 169.31 183.289 168.573 179.761 168.573H165.304V185.716H178.418ZM180.077 210.285C185.185 210.285 188.793 209.495 190.9 207.915C193.059 206.335 194.139 204.097 194.139 201.2C194.139 195.196 189.478 192.194 180.156 192.194H165.304V210.285H180.077ZM221.975 217.395C220.974 217.395 220.132 217.053 219.447 216.368C218.762 215.683 218.42 214.841 218.42 213.84V165.492C218.42 164.491 218.762 163.649 219.447 162.964C220.132 162.227 220.974 161.858 221.975 161.858H239.987C244.99 161.858 249.072 162.701 252.232 164.386C255.392 166.071 257.657 168.231 259.026 170.864C260.395 173.497 261.08 176.341 261.08 179.396C261.08 182.451 260.395 185.295 259.026 187.928C257.657 190.561 255.392 192.721 252.232 194.406C249.072 196.091 244.99 196.934 239.987 196.934H225.609V213.84C225.609 214.841 225.24 215.683 224.503 216.368C223.818 217.053 222.976 217.395 221.975 217.395ZM239.276 190.14C244.648 190.14 248.414 189.113 250.573 187.059C252.785 185.005 253.891 182.451 253.891 179.396C253.891 176.341 252.785 173.787 250.573 171.733C248.414 169.679 244.648 168.652 239.276 168.652H225.609V190.14H239.276Z" fill="white"/>
<path d="M28.915 216.526L27.6656 218.088L27.7222 218.133L27.7819 218.174L28.915 216.526ZM27.098 213.84L25.1962 214.459L25.2068 214.492L25.2184 214.523L27.098 213.84ZM11.614 166.282L9.68443 166.808L9.6972 166.855L9.71222 166.901L11.614 166.282ZM11.377 164.939H13.377V164.886L13.3742 164.834L11.377 164.939ZM12.246 162.49L10.8318 161.076L10.8317 161.076L12.246 162.49ZM17.065 162.253L15.7846 163.789L15.7846 163.789L17.065 162.253ZM18.408 164.307L20.3213 163.725L20.3191 163.718L20.3169 163.71L18.408 164.307ZM31.68 207.915L29.7666 208.497L31.6708 214.754L33.5917 208.502L31.68 207.915ZM45.031 164.465L46.9427 165.052L46.9463 165.041L46.9497 165.029L45.031 164.465ZM46.532 162.332L47.6944 163.959L47.7046 163.952L47.7147 163.945L46.532 162.332ZM51.667 162.332L50.4313 163.905L50.4927 163.953L50.5576 163.996L51.667 162.332ZM53.247 164.465L51.3282 165.029L51.3316 165.041L51.3352 165.052L53.247 164.465ZM66.598 207.915L64.6862 208.502L66.6071 214.754L68.5113 208.497L66.598 207.915ZM79.87 164.307L77.961 163.71L77.9588 163.718L77.9566 163.725L79.87 164.307ZM81.213 162.253L82.4933 163.789L82.4933 163.789L81.213 162.253ZM85.953 162.49L84.4834 163.847L84.5376 163.905L84.5964 163.96L85.953 162.49ZM86.901 164.939L84.9037 164.834L84.901 164.886V164.939H86.901ZM86.664 166.282L88.5657 166.901L88.5807 166.855L88.5935 166.808L86.664 166.282ZM71.18 213.84L73.0596 214.523L73.0712 214.492L73.0817 214.459L71.18 213.84ZM69.284 216.526L70.4667 218.139L70.4754 218.132L70.484 218.126L69.284 216.526ZM63.596 216.447L62.3348 217.999L62.3873 218.042L62.4426 218.081L63.596 216.447ZM61.858 213.84L63.7736 213.265L63.7695 213.252L63.7652 213.238L61.858 213.84ZM49.139 173.55L51.0462 172.948L49.139 166.906L47.2317 172.948L49.139 173.55ZM36.42 213.84L34.5127 213.238L34.5084 213.252L34.5043 213.265L36.42 213.84ZM34.603 216.447L35.803 218.047L35.8104 218.041L35.8179 218.036L34.603 216.447ZM31.759 215.395C31.0973 215.395 30.5468 215.221 30.048 214.878L27.7819 218.174C28.9685 218.99 30.314 219.395 31.759 219.395V215.395ZM30.1644 214.964C29.7179 214.607 29.3009 214.046 28.9776 213.157L25.2184 214.523C25.7377 215.952 26.532 217.181 27.6656 218.088L30.1644 214.964ZM28.9997 213.221L13.5157 165.663L9.71222 166.901L25.1962 214.459L28.9997 213.221ZM13.5435 165.756C13.4758 165.508 13.4319 165.312 13.4058 165.164C13.3929 165.091 13.3853 165.035 13.3812 164.995C13.3769 164.954 13.377 164.937 13.377 164.939H9.37696C9.37696 165.527 9.51363 166.182 9.68443 166.808L13.5435 165.756ZM13.3742 164.834C13.3473 164.323 13.4801 164.084 13.6602 163.904L10.8317 161.076C9.74785 162.16 9.30127 163.553 9.37973 165.044L13.3742 164.834ZM13.6602 163.904C13.9349 163.629 14.2787 163.463 14.853 163.463V159.463C13.3206 159.463 11.9263 159.981 10.8318 161.076L13.6602 163.904ZM14.853 163.463C15.2402 163.463 15.5214 163.57 15.7846 163.789L18.3453 160.717C17.3445 159.883 16.1511 159.463 14.853 159.463V163.463ZM15.7846 163.789C16.0992 164.052 16.3417 164.4 16.499 164.904L20.3169 163.71C19.9476 162.529 19.2947 161.508 18.3453 160.717L15.7846 163.789ZM16.4946 164.889L29.7666 208.497L33.5933 207.333L20.3213 163.725L16.4946 164.889ZM33.5917 208.502L46.9427 165.052L43.1192 163.878L29.7682 207.328L33.5917 208.502ZM46.9497 165.029C47.091 164.549 47.3325 164.218 47.6944 163.959L45.3695 160.705C44.2567 161.499 43.4976 162.59 43.1122 163.901L46.9497 165.029ZM47.7147 163.945C48.1739 163.608 48.6313 163.463 49.139 163.463V159.463C47.7506 159.463 46.47 159.897 45.3492 160.719L47.7147 163.945ZM49.139 163.463C49.6442 163.463 50.0505 163.605 50.4313 163.905L52.9026 160.759C51.8087 159.9 50.5297 159.463 49.139 159.463V163.463ZM50.5576 163.996C50.9645 164.267 51.1998 164.593 51.3282 165.029L55.1657 163.901C54.7675 162.547 53.9494 161.45 52.7764 160.668L50.5576 163.996ZM51.3352 165.052L64.6862 208.502L68.5098 207.328L55.1587 163.878L51.3352 165.052ZM68.5113 208.497L81.7833 164.889L77.9566 163.725L64.6846 207.333L68.5113 208.497ZM81.7789 164.904C81.9363 164.4 82.1787 164.052 82.4933 163.789L79.9326 160.717C78.9832 161.508 78.3303 162.529 77.961 163.71L81.7789 164.904ZM82.4933 163.789C82.7565 163.57 83.0378 163.463 83.425 163.463V159.463C82.1268 159.463 80.9334 159.883 79.9326 160.717L82.4933 163.789ZM83.425 163.463C84.0005 163.463 84.2813 163.628 84.4834 163.847L87.4226 161.133C86.3607 159.983 84.9561 159.463 83.425 159.463V163.463ZM84.5964 163.96C84.8077 164.155 84.9278 164.376 84.9037 164.834L88.8982 165.044C88.9794 163.5 88.4676 162.089 87.3095 161.02L84.5964 163.96ZM84.901 164.939C84.901 164.937 84.901 164.954 84.8968 164.995C84.8926 165.035 84.8851 165.091 84.8721 165.164C84.846 165.312 84.8021 165.508 84.7344 165.756L88.5935 166.808C88.7643 166.182 88.901 165.527 88.901 164.939H84.901ZM84.7622 165.663L69.2782 213.221L73.0817 214.459L88.5657 166.901L84.7622 165.663ZM69.3004 213.157C68.9887 214.014 68.5659 214.565 68.084 214.926L70.484 218.126C71.6873 217.223 72.5286 215.984 73.0596 214.523L69.3004 213.157ZM68.1012 214.913C67.6806 215.222 67.1808 215.395 66.519 215.395V219.395C67.9638 219.395 69.3073 218.989 70.4667 218.139L68.1012 214.913ZM66.519 215.395C65.8961 215.395 65.3217 215.217 64.7493 214.813L62.4426 218.081C63.6608 218.941 65.0352 219.395 66.519 219.395V215.395ZM64.8572 214.895C64.3299 214.466 63.976 213.94 63.7736 213.265L59.9423 214.415C60.372 215.847 61.1766 217.058 62.3348 217.999L64.8572 214.895ZM63.7652 213.238L51.0462 172.948L47.2317 174.152L59.9507 214.442L63.7652 213.238ZM47.2317 172.948L34.5127 213.238L38.3272 214.442L51.0462 174.152L47.2317 172.948ZM34.5043 213.265C34.3125 213.905 33.9578 214.423 33.3881 214.858L35.8179 218.036C37.0388 217.102 37.8954 215.882 38.3356 214.415L34.5043 213.265ZM33.403 214.847C32.9065 215.219 32.3796 215.395 31.759 215.395V219.395C33.245 219.395 34.6141 218.939 35.803 218.047L33.403 214.847ZM103.234 215.973L104.648 214.559L104.648 214.559L103.234 215.973ZM103.234 162.964L104.648 164.378L104.674 164.352L104.699 164.325L103.234 162.964ZM139.811 162.885L138.341 164.242L138.395 164.3L138.454 164.355L139.811 162.885ZM139.811 167.625L138.454 166.155L138.425 166.183L138.396 166.211L139.811 167.625ZM109.396 168.573V166.573H107.396V168.573H109.396ZM109.396 186.032H107.396V188.032H109.396V186.032ZM136.967 187.059L135.497 188.416L135.551 188.474L135.61 188.529L136.967 187.059ZM136.967 191.799L135.61 190.329L135.581 190.357L135.552 190.385L136.967 191.799ZM109.396 192.747V190.747H107.396V192.747H109.396ZM109.396 210.285H107.396V212.285H109.396V210.285ZM139.811 211.312L138.341 212.669L138.395 212.727L138.454 212.782L139.811 211.312ZM139.811 216.052L138.454 214.582L138.425 214.61L138.396 214.638L139.811 216.052ZM105.762 215C105.272 215 104.944 214.855 104.648 214.559L101.819 217.387C102.893 218.461 104.25 219 105.762 219V215ZM104.648 214.559C104.352 214.263 104.207 213.935 104.207 213.445H100.207C100.207 214.956 100.746 216.314 101.819 217.387L104.648 214.559ZM104.207 213.445V165.492H100.207V213.445H104.207ZM104.207 165.492C104.207 165.002 104.352 164.674 104.648 164.378L101.819 161.55C100.746 162.623 100.207 163.981 100.207 165.492H104.207ZM104.699 164.325C105.008 163.993 105.321 163.858 105.762 163.858V159.858C104.201 159.858 102.829 160.461 101.768 161.603L104.699 164.325ZM105.762 163.858H137.441V159.858H105.762V163.858ZM137.441 163.858C137.841 163.858 138.095 163.975 138.341 164.242L141.28 161.528C140.262 160.426 138.936 159.858 137.441 159.858V163.858ZM138.454 164.355C138.72 164.601 138.838 164.854 138.838 165.255H142.838C142.838 163.76 142.27 162.433 141.167 161.415L138.454 164.355ZM138.838 165.255C138.838 165.656 138.72 165.909 138.454 166.155L141.167 169.095C142.27 168.077 142.838 166.75 142.838 165.255H138.838ZM138.396 166.211C138.164 166.443 137.894 166.573 137.441 166.573V170.573C138.883 170.573 140.193 170.071 141.225 169.039L138.396 166.211ZM137.441 166.573H109.396V170.573H137.441V166.573ZM107.396 168.573V186.032H111.396V168.573H107.396ZM109.396 188.032H134.597V184.032H109.396V188.032ZM134.597 188.032C134.997 188.032 135.251 188.149 135.497 188.416L138.436 185.702C137.418 184.6 136.092 184.032 134.597 184.032V188.032ZM135.61 188.529C135.876 188.775 135.994 189.028 135.994 189.429H139.994C139.994 187.934 139.426 186.607 138.323 185.589L135.61 188.529ZM135.994 189.429C135.994 189.83 135.876 190.083 135.61 190.329L138.323 193.269C139.426 192.251 139.994 190.924 139.994 189.429H135.994ZM135.552 190.385C135.32 190.617 135.05 190.747 134.597 190.747V194.747C136.039 194.747 137.349 194.245 138.381 193.213L135.552 190.385ZM134.597 190.747H109.396V194.747H134.597V190.747ZM107.396 192.747V210.285H111.396V192.747H107.396ZM109.396 212.285H137.441V208.285H109.396V212.285ZM137.441 212.285C137.841 212.285 138.095 212.402 138.341 212.669L141.28 209.955C140.262 208.853 138.936 208.285 137.441 208.285V212.285ZM138.454 212.782C138.72 213.028 138.838 213.281 138.838 213.682H142.838C142.838 212.187 142.27 210.86 141.167 209.842L138.454 212.782ZM138.838 213.682C138.838 214.083 138.72 214.336 138.454 214.582L141.167 217.522C142.27 216.504 142.838 215.177 142.838 213.682H138.838ZM138.396 214.638C138.164 214.87 137.894 215 137.441 215V219C138.883 219 140.193 218.498 141.225 217.466L138.396 214.638ZM137.441 215H105.762V219H137.441V215ZM159.142 215.973L160.556 214.559L160.556 214.559L159.142 215.973ZM159.142 162.964L160.556 164.378L160.582 164.352L160.607 164.325L159.142 162.964ZM193.349 165.729L192.058 167.257L192.064 167.262L192.071 167.268L193.349 165.729ZM195.798 183.82L194.173 182.654L194.167 182.662L195.798 183.82ZM190.268 188.323L189.459 186.494L184.619 188.632L189.664 190.23L190.268 188.323ZM198.01 193.142L196.526 194.484L196.535 194.493L196.544 194.503L198.01 193.142ZM196.193 212.892L197.478 214.424L197.478 214.424L196.193 212.892ZM188.293 183.346L187.012 181.81L188.293 183.346ZM188.056 170.785L186.869 172.395L186.879 172.402L186.889 172.41L188.056 170.785ZM165.304 168.573V166.573H163.304V168.573H165.304ZM165.304 185.716H163.304V187.716H165.304V185.716ZM190.9 207.915L189.719 206.301L189.709 206.308L189.7 206.315L190.9 207.915ZM165.304 192.194V190.194H163.304V192.194H165.304ZM165.304 210.285H163.304V212.285H165.304V210.285ZM161.67 215C161.179 215 160.852 214.855 160.556 214.559L157.727 217.387C158.801 218.461 160.158 219 161.67 219V215ZM160.556 214.559C160.26 214.263 160.115 213.935 160.115 213.445H156.115C156.115 214.956 156.654 216.314 157.727 217.387L160.556 214.559ZM160.115 213.445V165.492H156.115V213.445H160.115ZM160.115 165.492C160.115 165.002 160.26 164.674 160.556 164.378L157.727 161.55C156.654 162.623 156.115 163.981 156.115 165.492H160.115ZM160.607 164.325C160.916 163.993 161.228 163.858 161.67 163.858V159.858C160.109 159.858 158.737 160.461 157.676 161.603L160.607 164.325ZM161.67 163.858H180.314V159.858H161.67V163.858ZM180.314 163.858C185.667 163.858 189.487 165.085 192.058 167.257L194.639 164.201C191.1 161.212 186.23 159.858 180.314 159.858V163.858ZM192.071 167.268C194.679 169.434 196.01 172.325 196.01 176.157H200.01C200.01 171.247 198.232 167.185 194.626 164.19L192.071 167.268ZM196.01 176.157C196.01 178.882 195.356 181.005 194.173 182.654L197.422 184.986C199.188 182.527 200.01 179.541 200.01 176.157H196.01ZM194.167 182.662C192.956 184.367 191.397 185.637 189.459 186.494L191.076 190.152C193.667 189.007 195.795 187.276 197.428 184.978L194.167 182.662ZM189.664 190.23C192.524 191.136 194.789 192.563 196.526 194.484L199.493 191.8C197.228 189.297 194.331 187.512 190.871 186.416L189.664 190.23ZM196.544 194.503C198.213 196.301 199.091 198.586 199.091 201.516H203.091C203.091 197.704 201.914 194.407 199.475 191.781L196.544 194.503ZM199.091 201.516C199.091 205.861 197.654 209.056 194.907 211.36L197.478 214.424C201.261 211.251 203.091 206.862 203.091 201.516H199.091ZM194.907 211.36C192.171 213.655 187.603 215 180.788 215V219C187.981 219 193.684 217.606 197.478 214.424L194.907 211.36ZM180.788 215H161.67V219H180.788V215ZM178.418 187.716C183.207 187.716 187.112 186.933 189.573 184.882L187.012 181.81C185.681 182.919 183.002 183.716 178.418 183.716V187.716ZM189.573 184.882C191.997 182.862 193.137 180.047 193.137 176.71H189.137C189.137 179.061 188.38 180.67 187.012 181.81L189.573 184.882ZM193.137 176.71C193.137 173.574 191.786 171.001 189.222 169.16L186.889 172.41C188.433 173.518 189.137 174.895 189.137 176.71H193.137ZM189.242 169.175C186.779 167.36 183.543 166.573 179.761 166.573V170.573C183.036 170.573 185.329 171.26 186.869 172.395L189.242 169.175ZM179.761 166.573H165.304V170.573H179.761V166.573ZM163.304 168.573V185.716H167.304V168.573H163.304ZM165.304 187.716H178.418V183.716H165.304V187.716ZM180.077 212.285C185.273 212.285 189.446 211.505 192.1 209.515L189.7 206.315C188.139 207.485 185.098 208.285 180.077 208.285V212.285ZM192.081 209.529C194.802 207.538 196.139 204.673 196.139 201.2H192.139C192.139 203.52 191.315 205.132 189.719 206.301L192.081 209.529ZM196.139 201.2C196.139 197.585 194.682 194.668 191.726 192.764C188.92 190.957 184.967 190.194 180.156 190.194V194.194C184.666 194.194 187.704 194.932 189.56 196.127C191.264 197.225 192.139 198.811 192.139 201.2H196.139ZM180.156 190.194H165.304V194.194H180.156V190.194ZM163.304 192.194V210.285H167.304V192.194H163.304ZM165.304 212.285H180.077V208.285H165.304V212.285ZM219.447 216.368L220.861 214.954L220.861 214.954L219.447 216.368ZM219.447 162.964L220.861 164.378L220.887 164.352L220.912 164.325L219.447 162.964ZM252.232 164.386L253.173 162.621L252.232 164.386ZM259.026 170.864L257.251 171.787L257.251 171.787L259.026 170.864ZM259.026 187.928L257.251 187.005L257.251 187.005L259.026 187.928ZM252.232 194.406L253.173 196.171L252.232 194.406ZM225.609 196.934V194.934H223.609V196.934H225.609ZM224.503 216.368L223.142 214.902L223.115 214.928L223.089 214.954L224.503 216.368ZM250.573 187.059L249.212 185.593L249.203 185.602L249.194 185.61L250.573 187.059ZM250.573 171.733L249.194 173.182L249.203 173.19L249.212 173.199L250.573 171.733ZM225.609 168.652V166.652H223.609V168.652H225.609ZM225.609 190.14H223.609V192.14H225.609V190.14ZM221.975 215.395C221.485 215.395 221.157 215.25 220.861 214.954L218.033 217.782C219.106 218.856 220.464 219.395 221.975 219.395V215.395ZM220.861 214.954C220.565 214.658 220.42 214.33 220.42 213.84H216.42C216.42 215.351 216.959 216.709 218.033 217.782L220.861 214.954ZM220.42 213.84V165.492H216.42V213.84H220.42ZM220.42 165.492C220.42 165.002 220.565 164.674 220.861 164.378L218.033 161.55C216.959 162.623 216.42 163.981 216.42 165.492H220.42ZM220.912 164.325C221.221 163.993 221.534 163.858 221.975 163.858V159.858C220.415 159.858 219.042 160.461 217.981 161.603L220.912 164.325ZM221.975 163.858H239.987V159.858H221.975V163.858ZM239.987 163.858C244.785 163.858 248.512 164.669 251.291 166.151L253.173 162.621C249.631 160.732 245.195 159.858 239.987 159.858V163.858ZM251.291 166.151C254.169 167.686 256.104 169.58 257.251 171.787L260.8 169.941C259.209 166.881 256.615 164.457 253.173 162.621L251.291 166.151ZM257.251 171.787C258.468 174.127 259.08 176.653 259.08 179.396H263.08C263.08 176.03 262.322 172.868 260.8 169.941L257.251 171.787ZM259.08 179.396C259.08 182.139 258.468 184.665 257.251 187.005L260.8 188.851C262.322 185.924 263.08 182.762 263.08 179.396H259.08ZM257.251 187.005C256.104 189.212 254.169 191.106 251.291 192.641L253.173 196.171C256.615 194.335 259.209 191.911 260.8 188.851L257.251 187.005ZM251.291 192.641C248.512 194.123 244.785 194.934 239.987 194.934V198.934C245.195 198.934 249.631 198.06 253.173 196.171L251.291 192.641ZM239.987 194.934H225.609V198.934H239.987V194.934ZM223.609 196.934V213.84H227.609V196.934H223.609ZM223.609 213.84C223.609 214.281 223.474 214.594 223.142 214.902L225.864 217.834C227.006 216.773 227.609 215.4 227.609 213.84H223.609ZM223.089 214.954C222.793 215.25 222.465 215.395 221.975 215.395V219.395C223.486 219.395 224.844 218.856 225.917 217.782L223.089 214.954ZM239.276 192.14C244.788 192.14 249.217 191.109 251.951 188.508L249.194 185.61C247.61 187.117 244.508 188.14 239.276 188.14V192.14ZM251.934 188.525C254.559 186.087 255.891 182.999 255.891 179.396H251.891C251.891 181.902 251.011 183.923 249.212 185.593L251.934 188.525ZM255.891 179.396C255.891 175.793 254.559 172.705 251.934 170.267L249.212 173.199C251.011 174.869 251.891 176.89 251.891 179.396H255.891ZM251.951 170.284C249.217 167.683 244.788 166.652 239.276 166.652V170.652C244.508 170.652 247.61 171.675 249.194 173.182L251.951 170.284ZM239.276 166.652H225.609V170.652H239.276V166.652ZM223.609 168.652V190.14H227.609V168.652H223.609ZM225.609 192.14H239.276V188.14H225.609V192.14Z" fill="white"/>
<mask id="mask1_0_55" style="mask-type:alpha" maskUnits="userSpaceOnUse" x="0" y="0" width="272" height="308">
<path d="M250 308H22C9.84974 308 0 298.15 0 286V22C0 9.84974 9.84974 0 22 0H170L272 102V286C272 298.15 262.15 308 250 308Z" fill="url(#paint2_linear_0_55)"/>
</mask>
<g mask="url(#mask1_0_55)">
<ellipse opacity="0.04" cx="-14.5" cy="-12.5" rx="223.5" ry="214.5" fill="url(#paint3_linear_0_55)"/>
<ellipse opacity="0.06" cx="-14.5" cy="-12.5" rx="140.5" ry="134.5" fill="url(#paint4_linear_0_55)"/>
</g>
<g filter="url(#filter1_d_0_55)">
<path d="M272 102H192C179.85 102 170 92.1503 170 80V0L272 102Z" fill="url(#paint5_linear_0_55)"/>
</g>
</g>
<defs>
<filter id="filter0_f_0_55" x="9" y="110" width="256" height="162" filterUnits="userSpaceOnUse" color-interpolation-filters="sRGB">
<feFlood flood-opacity="0" result="BackgroundImageFix"/>
<feBlend mode="normal" in="SourceGraphic" in2="BackgroundImageFix" result="shape"/>
<feGaussianBlur stdDeviation="19.5" result="effect1_foregroundBlur_0_55"/>
</filter>
<filter id="filter1_d_0_55" x="147" y="-24" width="152" height="152" filterUnits="userSpaceOnUse" color-interpolation-filters="sRGB">
<feFlood flood-opacity="0" result="BackgroundImageFix"/>
<feColorMatrix in="SourceAlpha" type="matrix" values="0 0 0 0 0 0 0 0 0 0 0 0 0 0 0 0 0 0 127 0" result="hardAlpha"/>
<feOffset dx="2" dy="1"/>
<feGaussianBlur stdDeviation="12.5"/>
<feColorMatrix type="matrix" values="0 0 0 0 0 0 0 0 0 0 0 0 0 0 0 0 0 0 0.33 0"/>
<feBlend mode="normal" in2="BackgroundImageFix" result="effect1_dropShadow_0_55"/>
<feBlend mode="normal" in="SourceGraphic" in2="effect1_dropShadow_0_55" result="shape"/>
</filter>
<linearGradient id="paint0_linear_0_55" x1="136" y1="0" x2="136" y2="308" gradientUnits="userSpaceOnUse">
<stop stop-color="#FF7979"/>
<stop offset="1" stop-color="#E85555"/>
</linearGradient>
<linearGradient id="paint1_linear_0_55" x1="136" y1="0" x2="136" y2="308" gradientUnits="userSpaceOnUse">
<stop stop-color="#FFA216"/>
<stop offset="1" stop-color="#EF8100"/>
</linearGradient>
<linearGradient id="paint2_linear_0_55" x1="136" y1="0" x2="136" y2="308" gradientUnits="userSpaceOnUse">
<stop stop-color="#FFA216"/>
<stop offset="1" stop-color="#EF8100"/>
</linearGradient>
<linearGradient id="paint3_linear_0_55" x1="1.72772" y1="-5.12887" x2="69.5069" y2="174.758" gradientUnits="userSpaceOnUse">
<stop stop-color="white" stop-opacity="0"/>
<stop offset="1" stop-color="white"/>
</linearGradient>
<linearGradient id="paint4_linear_0_55" x1="-4.29868" y1="-7.87801" x2="38.1204" y2="104.989" gradientUnits="userSpaceOnUse">
<stop stop-color="white" stop-opacity="0"/>
<stop offset="1" stop-color="white"/>
</linearGradient>
<linearGradient id="paint5_linear_0_55" x1="221" y1="0" x2="221" y2="102" gradientUnits="userSpaceOnUse">
<stop stop-color="#FF7A1B"/>
<stop offset="1" stop-color="#E86100"/>
</linearGradient>
</defs>
</svg>
